<?xml version="1.0" encoding="UTF-8" standalone="no"?>
<!-- Generator: Adobe Illustrator 23.1.0, SVG Export Plug-In . SVG Version: 6.00 Build 0)  -->

<svg
   xmlns:dc="http://purl.org/dc/elements/1.1/"
   xmlns:cc="http://creativecommons.org/ns#"
   xmlns:rdf="http://www.w3.org/1999/02/22-rdf-syntax-ns#"
   xmlns:svg="http://www.w3.org/2000/svg"
   xmlns="http://www.w3.org/2000/svg"
   xmlns:sodipodi="http://sodipodi.sourceforge.net/DTD/sodipodi-0.dtd"
   xmlns:inkscape="http://www.inkscape.org/namespaces/inkscape"
   version="1.1"
   id="Layer_1"
   x="0px"
   y="0px"
   viewBox="0 0 576 576"
   style="enable-background:new 0 0 576 576;"
   xml:space="preserve"
   sodipodi:docname="SocialHardShadowOrange.svg"
   inkscape:version="0.92.3 (2405546, 2018-03-11)"><metadata
   id="metadata1393"><rdf:RDF><cc:Work
       rdf:about=""><dc:format>image/svg+xml</dc:format><dc:type
         rdf:resource="http://purl.org/dc/dcmitype/StillImage" /></cc:Work></rdf:RDF></metadata><defs
   id="defs1391" /><sodipodi:namedview
   pagecolor="#ffffff"
   bordercolor="#666666"
   borderopacity="1"
   objecttolerance="10"
   gridtolerance="10"
   guidetolerance="10"
   inkscape:pageopacity="0"
   inkscape:pageshadow="2"
   inkscape:window-width="1918"
   inkscape:window-height="1060"
   id="namedview1389"
   showgrid="false"
   inkscape:zoom="4.3212081"
   inkscape:cx="166.46875"
   inkscape:cy="249.92354"
   inkscape:window-x="0"
   inkscape:window-y="18"
   inkscape:window-maximized="0"
   inkscape:current-layer="Layer_1" />
<style
   type="text/css"
   id="style1192">
	.st0{fill:#F6E0C9;}
	.st1{fill:#DB8427;}
	.st2{fill:#FFFFFF;}
	.st3{fill:#EFC79C;}
	.st4{font-family:'Sofia Pro';font-weight: 700;}
	.st5{font-size:26.6364px;}
	.st6{font-size:18px;}
	.st7{fill:none;stroke:#EFC79C;stroke-width:6;stroke-miterlimit:10;}
	.st8{fill:#EFD8E9;}
	.st9{fill:#C94F9D;}
	.st10{fill:none;stroke:#D993C0;stroke-width:6;stroke-miterlimit:10;}
	.st11{fill:#D993C0;}
</style>
<rect
   class="st0"
   width="576"
   height="576"
   id="rect1194" />
<g
   id="g1204">
	<rect
   x="79.83"
   y="175.3"
   class="st1"
   width="447.65"
   height="256.7"
   id="rect1196" />
	<g
   id="g1202">
		<rect
   x="51.52"
   y="147"
   class="st2"
   width="441.65"
   height="250.7"
   id="rect1198" />
		<path
   class="st1"
   d="M490.17,150v244.7H54.52V150H490.17 M496.17,144H48.52v256.7h447.65V144L496.17,144z"
   id="path1200" />
	</g>
</g>
<g
   id="g1220">
	<path
   class="st1"
   d="M101.69,233.65v1.79c0,2.46-2.13,4.93-4.71,5.6l-18.83,4.71c-2.46,0.67-4.59-0.78-4.59-3.25v-70.15   c0-2.47,2.13-4.93,4.59-5.49l18.83-4.82c2.58-0.56,4.71,0.78,4.71,3.25v2.02l-9.3,2.13v-2.13c0-1.91-1.79-3.14-3.92-2.58   l-1.68,0.45c-2.02,0.56-3.92,2.58-3.92,4.59v70.6c0,2.13,1.68,3.25,3.81,2.8l1.79-0.45c2.13-0.56,3.92-2.69,3.92-4.71v-2.13   L101.69,233.65z"
   id="path1206" />
	<path
   class="st1"
   d="M136.32,184.8v50.65c0,2.46-2.13,4.93-4.71,5.6l-18.83,4.71c-2.47,0.56-4.71-0.78-4.71-3.25v-50.76   c0-2.35,2.24-4.82,4.71-5.49l18.83-4.71C134.19,180.87,136.32,182.33,136.32,184.8z M126.91,186.81c0-2.02-1.68-3.25-3.81-2.69   l-1.68,0.45c-2.13,0.56-3.92,2.58-3.92,4.59v51.21c0,2.02,1.79,3.25,3.92,2.69l1.68-0.34c2.13-0.56,3.81-2.69,3.81-4.59V186.81z"
   id="path1208" />
	<path
   class="st1"
   d="M170.72,239.71c0,0-2.02,0.67-23.42,6.05c-2.58,0.56-4.71-0.9-4.71-3.25v-47.63c0-2.46,2.13-4.93,4.71-5.49   l14.01-3.59v-22.64l9.41-2.35C170.72,172.02,170.72,172.02,170.72,239.71z M161.31,189.84c0-1.9-1.68-3.14-3.81-2.58l-1.68,0.45   c-2.13,0.45-3.92,2.58-3.92,4.48v48.3c0,1.9,1.79,3.14,3.92,2.58l1.79-0.45c2.13-0.56,3.7-2.58,3.7-4.59V189.84z"
   id="path1210" />
	<path
   class="st1"
   d="M186.52,215.16v25.21c0,2.02,1.79,3.14,3.92,2.69l1.68-0.45c2.13-0.56,3.81-2.58,3.81-4.59v-2.13l9.41-2.35   v1.79c0,2.47-2.13,4.93-4.71,5.6l-18.83,4.71c-2.58,0.67-4.71-0.78-4.71-3.25v-50.76c0-2.35,2.13-4.82,4.71-5.49l18.83-4.71   c2.58-0.67,4.71,0.78,4.71,3.25v25.77l-18.83,4.82V215.16z M186.52,189.05v24.88l9.41-2.35V186.7c0-2.02-1.68-3.14-3.81-2.58   l-1.68,0.34C188.32,185.02,186.52,187.04,186.52,189.05z"
   id="path1212" />
	<path
   class="st1"
   d="M239.75,164.29v70.15c0,2.47-2.13,4.82-4.71,5.49l-23.42,5.94v-79l23.42-5.83   C237.63,160.48,239.75,161.82,239.75,164.29z M230.45,166.42c0-2.02-1.68-3.25-3.81-2.69l-5.71,1.34v77.99l5.71-1.46   c2.02-0.45,3.81-2.58,3.81-4.59V166.42z"
   id="path1214" />
	<path
   class="st1"
   d="M274.27,184.68v55.02c0,0-2.13,0.67-4.71,1.34l-18.71,4.71c-2.58,0.56-4.71-0.9-4.71-3.25v-35.52   c0-2.46,2.13-4.93,4.71-5.6l14.01-3.47v-11.09c0-2.02-1.68-3.25-3.81-2.69l-1.68,0.45c-2.13,0.56-3.92,2.58-3.92,4.48v2.24   l-9.3,2.35v-1.91c0-2.35,2.13-4.93,4.71-5.49l18.71-4.71C272.14,180.87,274.27,182.33,274.27,184.68z M264.86,201.94   c0-2.02-1.68-3.14-3.81-2.69l-1.68,0.45c-2.13,0.56-3.92,2.58-3.92,4.59v33.95v2.24c0,1.9,1.79,3.03,3.92,2.58l1.68-0.45   c2.13-0.56,3.81-2.58,3.81-4.59V201.94z"
   id="path1216" />
	<path
   class="st1"
   d="M308.67,182.33v75.42c0,2.47-2.02,4.93-4.59,5.6l-18.83,4.71c-2.58,0.67-4.59-0.78-4.59-3.25v-1.9l9.3-2.35   v2.24c0,1.9,1.68,3.14,3.81,2.58l1.79-0.45c2.13-0.45,3.81-2.58,3.81-4.59v-18.27l-14.12,3.59c-2.58,0.56-4.59-0.9-4.59-3.25v-53   l9.3-2.35v53.34c0,1.9,1.68,3.14,3.81,2.58l1.68-0.45c2.13-0.56,3.92-2.58,3.92-4.59v-53.23v-0.11L308.67,182.33z"
   id="path1218" />
</g>
<text
   id="text1226"
   x="204.91"
   y="357.71069"><tspan
     x="200.87595"
     y="357.71069"
     class="st3 st4 st5"
     id="tspan1222"
     style="font-size:26.63640022px;font-family:Sofia Pro;font-weight:700;text-align:end;text-anchor:end;fill:#efc79c">{{short_month}} {{day}}-{{day+1}}</tspan><tspan
     x="200.87595"
     y="379.3107"
     class="st3 st4 st6"
     id="tspan1224"
     style="font-size:18px;font-family:Sofia Pro;font-weight:700;fill:#efc79c">{%if current_event.venue%}{{current_event.venue['name']}}{%else%}{{name}}{%endif%}</tspan></text>


<line
   class="st7"
   x1="232.58"
   y1="338.65"
   x2="232.58"
   y2="380.13"
   id="line1228" />
<g
   id="g1372">
	<path
   class="st1"
   d="M81.78,286.55h-4.65l-0.99,2.97h-2.67l4.63-12.41h2.7l4.61,12.41h-2.63L81.78,286.55z M81.02,284.37   l-1.58-4.66l-1.57,4.66H81.02z"
   id="path1230" />
	<path
   class="st1"
   d="M92.65,281.18l-0.54,2.25c-0.5-0.27-0.92-0.31-1.21-0.31c-1.21,0-2.04,1.12-2.04,3.51v2.88h-2.36v-8.39h2.34   v1.78c0.47-1.4,1.42-2,2.47-2C91.76,280.92,92.27,280.99,92.65,281.18z"
   id="path1232" />
	<path
   class="st1"
   d="M98.87,282.95h-1.78v6.57h-2.36v-6.57H93.2v-1.82h1.53v-3.08h2.36v3.08h1.78V282.95z"
   id="path1234" />
	<path
   class="st1"
   d="M100.08,278.21c0-0.79,0.68-1.4,1.5-1.4c0.83,0,1.49,0.61,1.49,1.4s-0.67,1.42-1.49,1.42   C100.76,279.64,100.08,279.01,100.08,278.21z M100.4,281.13h2.36v8.39h-2.36V281.13z"
   id="path1236" />
	<path
   class="st1"
   d="M104.61,286.82h2.21c0,0.49,0.41,1.01,1.24,1.01c0.68,0,1.21-0.29,1.21-0.77c0-0.36-0.29-0.54-0.92-0.7   l-1.12-0.27c-2.16-0.58-2.45-1.78-2.45-2.66c0-1.3,1.35-2.5,3.29-2.5c1.53,0,3.33,0.76,3.31,2.74h-2.25c0-0.56-0.47-0.86-1.03-0.86   c-0.54,0-0.97,0.27-0.97,0.7c0,0.4,0.36,0.59,0.83,0.72l1.39,0.36c2.02,0.54,2.27,1.8,2.27,2.48c0,1.76-1.8,2.63-3.53,2.63   C106.34,289.68,104.63,288.67,104.61,286.82z"
   id="path1238" />
	<path
   class="st1"
   d="M118.4,282.95h-1.78v6.57h-2.36v-6.57h-1.53v-1.82h1.53v-3.08h2.36v3.08h1.78V282.95z"
   id="path1240" />
	<path
   class="st1"
   d="M119.34,286.82h2.21c0,0.49,0.41,1.01,1.24,1.01c0.68,0,1.21-0.29,1.21-0.77c0-0.36-0.29-0.54-0.92-0.7   l-1.12-0.27c-2.16-0.58-2.45-1.78-2.45-2.66c0-1.3,1.35-2.5,3.29-2.5c1.53,0,3.33,0.76,3.31,2.74h-2.25c0-0.56-0.47-0.86-1.03-0.86   c-0.54,0-0.97,0.27-0.97,0.7c0,0.4,0.36,0.59,0.83,0.72l1.39,0.36c2.02,0.54,2.27,1.8,2.27,2.48c0,1.76-1.8,2.63-3.53,2.63   C121.07,289.68,119.36,288.67,119.34,286.82z"
   id="path1242" />
	<path
   class="st1"
   d="M126.83,291.88c1.08-1.48,1.55-2.75,1.44-4.7h2.23c0.07,2.27-1.04,4.14-2.32,5.28L126.83,291.88z"
   id="path1244" />
	<path
   class="st1"
   d="M150.54,284.91v4.61h-2.38v-4.43c0-1.31-0.68-1.85-1.51-1.85c-0.94-0.02-1.6,0.58-1.66,1.84v4.45h-2.36v-4.45   c0-1.31-0.68-1.84-1.48-1.84c-0.85,0-1.71,0.4-1.71,1.91v4.38h-2.36v-8.39h2.36v1.49c0.25-1.15,1.44-1.71,2.38-1.71   c1.24,0,2.21,0.59,2.7,1.62c0.65-1.22,1.94-1.62,2.81-1.62C149.44,280.92,150.54,282.39,150.54,284.91z"
   id="path1246" />
	<path
   class="st1"
   d="M160.88,281.13v8.39h-2.36v-1.37c-0.36,1.1-1.69,1.57-2.52,1.57c-2.2,0-3.35-1.46-3.33-3.98v-4.61h2.36v4.36   c0,1.31,0.79,1.91,1.6,1.91c0.85,0,1.89-0.45,1.89-1.96v-4.3H160.88z"
   id="path1248" />
	<path
   class="st1"
   d="M162.74,286.82h2.21c0,0.49,0.41,1.01,1.24,1.01c0.68,0,1.21-0.29,1.21-0.77c0-0.36-0.29-0.54-0.92-0.7   l-1.12-0.27c-2.16-0.58-2.45-1.78-2.45-2.66c0-1.3,1.35-2.5,3.29-2.5c1.53,0,3.33,0.76,3.31,2.74h-2.25c0-0.56-0.47-0.86-1.03-0.86   c-0.54,0-0.97,0.27-0.97,0.7c0,0.4,0.36,0.59,0.83,0.72l1.39,0.36c2.02,0.54,2.27,1.8,2.27,2.48c0,1.76-1.8,2.63-3.53,2.63   C164.46,289.68,162.75,288.67,162.74,286.82z"
   id="path1250" />
	<path
   class="st1"
   d="M171.3,278.21c0-0.79,0.68-1.4,1.49-1.4c0.83,0,1.49,0.61,1.49,1.4s-0.67,1.42-1.49,1.42   C171.99,279.64,171.3,279.01,171.3,278.21z M171.63,281.13h2.36v8.39h-2.36V281.13z"
   id="path1252" />
	<path
   class="st1"
   d="M175.84,285.29c0-2.67,2.16-4.38,4.61-4.38c1.53,0,2.75,0.72,3.55,1.8l-1.76,1.24   c-0.38-0.52-1.08-0.85-1.76-0.85c-1.33,0-2.23,0.95-2.23,2.18c0,1.24,0.9,2.2,2.23,2.2c0.68,0,1.39-0.32,1.76-0.85l1.76,1.24   c-0.79,1.1-2.02,1.8-3.55,1.8C178,289.68,175.84,287.96,175.84,285.29z"
   id="path1254" />
	<path
   class="st1"
   d="M185.36,278.21c0-0.79,0.68-1.4,1.49-1.4c0.83,0,1.49,0.61,1.49,1.4s-0.67,1.42-1.49,1.42   C186.04,279.64,185.36,279.01,185.36,278.21z M185.69,281.13h2.36v8.39h-2.36V281.13z"
   id="path1256" />
	<path
   class="st1"
   d="M199.1,281.13v8.39h-2.36v-1.04c-0.59,0.83-1.76,1.21-2.7,1.21c-2.16,0-4.12-1.67-4.12-4.38   c0-2.7,1.96-4.38,4.12-4.38c0.97,0,2.11,0.36,2.7,1.21v-1.01H199.1z M196.67,285.31c0-1.3-1.08-2.16-2.18-2.16   c-1.19,0-2.18,0.92-2.18,2.16c0,1.22,0.99,2.18,2.18,2.18C195.64,287.49,196.67,286.59,196.67,285.31z"
   id="path1258" />
	<path
   class="st1"
   d="M209.68,284.91v4.61h-2.36v-4.36c0-1.33-0.79-1.93-1.6-1.93c-0.85,0-1.89,0.45-1.89,1.98v4.3h-2.36v-8.39h2.36   v1.4c0.36-1.13,1.69-1.62,2.52-1.62C208.55,280.92,209.7,282.39,209.68,284.91z"
   id="path1260" />
	<path
   class="st1"
   d="M211.42,286.82h2.21c0,0.49,0.41,1.01,1.24,1.01c0.68,0,1.21-0.29,1.21-0.77c0-0.36-0.29-0.54-0.92-0.7   l-1.12-0.27c-2.16-0.58-2.45-1.78-2.45-2.66c0-1.3,1.35-2.5,3.29-2.5c1.53,0,3.33,0.76,3.31,2.74h-2.25c0-0.56-0.47-0.86-1.03-0.86   c-0.54,0-0.97,0.27-0.97,0.7c0,0.4,0.36,0.59,0.83,0.72l1.39,0.36c2.02,0.54,2.27,1.8,2.27,2.48c0,1.76-1.8,2.63-3.53,2.63   C213.15,289.68,211.44,288.67,211.42,286.82z"
   id="path1262" />
	<path
   class="st1"
   d="M218.91,291.88c1.08-1.48,1.55-2.75,1.44-4.7h2.23c0.07,2.27-1.04,4.14-2.32,5.28L218.91,291.88z"
   id="path1264" />
	<path
   class="st1"
   d="M228.65,285.29c0-2.67,2.16-4.38,4.61-4.38c1.53,0,2.75,0.72,3.55,1.8l-1.76,1.24   c-0.38-0.52-1.08-0.85-1.76-0.85c-1.33,0-2.23,0.95-2.23,2.18c0,1.24,0.9,2.2,2.23,2.2c0.68,0,1.39-0.32,1.76-0.85l1.76,1.24   c-0.79,1.1-2.02,1.8-3.55,1.8C230.81,289.68,228.65,287.96,228.65,285.29z"
   id="path1266" />
	<path
   class="st1"
   d="M237.81,285.31c0-2.67,2.13-4.39,4.52-4.39s4.52,1.73,4.52,4.39c0,2.65-2.13,4.38-4.52,4.38   S237.81,287.96,237.81,285.31z M244.46,285.31c0-1.31-0.95-2.2-2.13-2.2c-1.17,0-2.12,0.88-2.12,2.2c0,1.3,0.95,2.18,2.12,2.18   C243.5,287.49,244.46,286.6,244.46,285.31z"
   id="path1268" />
	<path
   class="st1"
   d="M257.38,276.65v12.87h-2.36v-1.04c-0.59,0.83-1.76,1.21-2.7,1.21c-2.16,0-4.12-1.67-4.12-4.38   c0-2.7,1.96-4.38,4.12-4.38c0.97,0,2.11,0.36,2.7,1.21v-5.49H257.38z M254.95,285.31c0-1.3-1.08-2.16-2.18-2.16   c-1.19,0-2.18,0.92-2.18,2.16c0,1.22,0.99,2.18,2.18,2.18C253.92,287.49,254.95,286.59,254.95,285.31z"
   id="path1270" />
	<path
   class="st1"
   d="M268.04,286.08h-6.34c0.25,0.97,1.04,1.51,2.18,1.51c0.85,0,1.69-0.34,2.2-0.94l1.39,1.39   c-0.79,1.06-2.27,1.64-3.75,1.64c-2.57,0-4.46-1.76-4.46-4.36c0-2.72,2.05-4.41,4.46-4.41c2.4,0,4.36,1.69,4.36,4.27   C268.07,285.42,268.05,285.7,268.04,286.08z M265.71,284.55c-0.07-0.99-0.9-1.58-1.96-1.58c-0.95,0-1.8,0.45-2.05,1.58H265.71z"
   id="path1272" />
	<path
   class="st1"
   d="M276.03,281.18l-0.54,2.25c-0.5-0.27-0.92-0.31-1.21-0.31c-1.21,0-2.04,1.12-2.04,3.51v2.88h-2.36v-8.39h2.34   v1.78c0.47-1.4,1.42-2,2.47-2C275.15,280.92,275.65,280.99,276.03,281.18z"
   id="path1274" />
	<path
   class="st1"
   d="M276.66,286.82h2.21c0,0.49,0.41,1.01,1.24,1.01c0.68,0,1.21-0.29,1.21-0.77c0-0.36-0.29-0.54-0.92-0.7   l-1.12-0.27c-2.16-0.58-2.45-1.78-2.45-2.66c0-1.3,1.35-2.5,3.29-2.5c1.53,0,3.33,0.76,3.31,2.74h-2.25c0-0.56-0.47-0.86-1.03-0.86   c-0.54,0-0.97,0.27-0.97,0.7c0,0.4,0.36,0.59,0.83,0.72l1.39,0.36c2.02,0.54,2.27,1.8,2.27,2.48c0,1.76-1.8,2.63-3.53,2.63   C278.38,289.68,276.67,288.67,276.66,286.82z"
   id="path1276" />
	<path
   class="st1"
   d="M285.4,282.39c0-0.85,0.68-1.46,1.51-1.46c0.81,0,1.5,0.61,1.5,1.46c0,0.85-0.68,1.44-1.5,1.44   C286.09,283.83,285.4,283.24,285.4,282.39z M285.4,288.22c0-0.83,0.68-1.44,1.51-1.44c0.81,0,1.5,0.61,1.5,1.44   c0,0.85-0.68,1.46-1.5,1.46C286.09,289.68,285.4,289.07,285.4,288.22z"
   id="path1278" />
	<path
   class="st1"
   d="M308.38,284.91v4.61H306v-4.43c0-1.31-0.68-1.85-1.51-1.85c-0.94-0.02-1.6,0.58-1.66,1.84v4.45h-2.36v-4.45   c0-1.31-0.68-1.84-1.48-1.84c-0.85,0-1.71,0.4-1.71,1.91v4.38h-2.36v-8.39h2.36v1.49c0.25-1.15,1.44-1.71,2.38-1.71   c1.24,0,2.21,0.59,2.7,1.62c0.65-1.22,1.95-1.62,2.81-1.62C307.28,280.92,308.38,282.39,308.38,284.91z"
   id="path1280" />
	<path
   class="st1"
   d="M319.3,281.13v8.39h-2.36v-1.04c-0.59,0.83-1.76,1.21-2.7,1.21c-2.16,0-4.12-1.67-4.12-4.38   c0-2.7,1.96-4.38,4.12-4.38c0.97,0,2.11,0.36,2.7,1.21v-1.01H319.3z M316.87,285.31c0-1.3-1.08-2.16-2.18-2.16   c-1.19,0-2.18,0.92-2.18,2.16c0,1.22,0.99,2.18,2.18,2.18C315.84,287.49,316.87,286.59,316.87,285.31z"
   id="path1282" />
	<path
   class="st1"
   d="M326.99,289.52l-2.95-3.64v3.64h-2.36v-12.87h2.36v7.04l2.13-2.56h3.02l-3.28,3.69l4.02,4.7H326.99z"
   id="path1284" />
	<path
   class="st1"
   d="M338.7,286.08h-6.34c0.25,0.97,1.04,1.51,2.18,1.51c0.85,0,1.69-0.34,2.2-0.94l1.39,1.39   c-0.79,1.06-2.27,1.64-3.75,1.64c-2.57,0-4.46-1.76-4.46-4.36c0-2.72,2.05-4.41,4.46-4.41c2.4,0,4.36,1.69,4.36,4.27   C338.74,285.42,338.72,285.7,338.7,286.08z M336.38,284.55c-0.07-0.99-0.9-1.58-1.96-1.58c-0.95,0-1.8,0.45-2.05,1.58H336.38z"
   id="path1286" />
	<path
   class="st1"
   d="M353.52,281.13v8.39h-2.36v-1.04c-0.59,0.83-1.76,1.21-2.7,1.21c-2.16,0-4.12-1.67-4.12-4.38   c0-2.7,1.96-4.38,4.12-4.38c0.97,0,2.11,0.36,2.7,1.21v-1.01H353.52z M351.09,285.31c0-1.3-1.08-2.16-2.18-2.16   c-1.19,0-2.18,0.92-2.18,2.16c0,1.22,0.99,2.18,2.18,2.18C350.06,287.49,351.09,286.59,351.09,285.31z"
   id="path1288" />
	<path
   class="st1"
   d="M368.85,281.13v7.24c0,3.67-1.85,5.38-4.83,5.38c-1.8,0-3.37-1.01-4.09-2.56l1.96-0.85   c0.36,0.76,1.22,1.3,2.12,1.3c1.51,0,2.47-0.83,2.47-3.03v-0.13c-0.61,0.81-1.76,1.19-2.7,1.19c-2.16,0-4.12-1.67-4.12-4.38   c0-2.7,1.96-4.38,4.12-4.38c0.95,0,2.09,0.38,2.7,1.19v-0.99H368.85z M366.42,285.31c0-1.3-1.08-2.16-2.18-2.16   c-1.19,0-2.18,0.92-2.18,2.16c0,1.22,0.99,2.18,2.18,2.18C365.4,287.49,366.42,286.59,366.42,285.31z"
   id="path1290" />
	<path
   class="st1"
   d="M379.91,281.13v8.39h-2.36v-1.04c-0.59,0.83-1.76,1.21-2.7,1.21c-2.16,0-4.12-1.67-4.12-4.38   c0-2.7,1.96-4.38,4.12-4.38c0.97,0,2.11,0.36,2.7,1.21v-1.01H379.91z M377.47,285.31c0-1.3-1.08-2.16-2.18-2.16   c-1.19,0-2.18,0.92-2.18,2.16c0,1.22,0.99,2.18,2.18,2.18C376.45,287.49,377.47,286.59,377.47,285.31z"
   id="path1292" />
	<path
   class="st1"
   d="M395.73,284.91v4.61h-2.38v-4.43c0-1.31-0.68-1.85-1.51-1.85c-0.94-0.02-1.6,0.58-1.66,1.84v4.45h-2.36v-4.45   c0-1.31-0.68-1.84-1.48-1.84c-0.85,0-1.71,0.4-1.71,1.91v4.38h-2.36v-8.39h2.36v1.49c0.25-1.15,1.44-1.71,2.38-1.71   c1.24,0,2.21,0.59,2.7,1.62c0.65-1.22,1.94-1.62,2.81-1.62C394.63,280.92,395.73,282.39,395.73,284.91z"
   id="path1294" />
	<path
   class="st1"
   d="M406.26,286.08h-6.34c0.25,0.97,1.04,1.51,2.18,1.51c0.85,0,1.69-0.34,2.2-0.94l1.39,1.39   c-0.79,1.06-2.27,1.64-3.75,1.64c-2.58,0-4.47-1.76-4.47-4.36c0-2.72,2.05-4.41,4.47-4.41c2.39,0,4.36,1.69,4.36,4.27   C406.29,285.42,406.27,285.7,406.26,286.08z M403.93,284.55c-0.07-0.99-0.9-1.58-1.96-1.58c-0.95,0-1.8,0.45-2.05,1.58H403.93z"
   id="path1296" />
	<path
   class="st1"
   d="M413.33,277.12h1.89l-5.98,12.41h-1.89L413.33,277.12z"
   id="path1298" />
	<path
   class="st1"
   d="M424.69,281.13v8.39h-2.36v-1.04c-0.59,0.83-1.76,1.21-2.7,1.21c-2.16,0-4.12-1.67-4.12-4.38   c0-2.7,1.96-4.38,4.12-4.38c0.97,0,2.11,0.36,2.7,1.21v-1.01H424.69z M422.26,285.31c0-1.3-1.08-2.16-2.18-2.16   c-1.19,0-2.18,0.92-2.18,2.16c0,1.22,0.99,2.18,2.18,2.18C421.23,287.49,422.26,286.59,422.26,285.31z"
   id="path1300" />
	<path
   class="st1"
   d="M436.25,285.31c0,2.7-1.96,4.38-4.12,4.38c-0.96,0-2.11-0.36-2.7-1.21v5.17h-2.36v-12.51h2.36v1.01   c0.59-0.85,1.75-1.22,2.7-1.22C434.28,280.92,436.25,282.61,436.25,285.31z M433.83,285.31c0-1.22-0.97-2.18-2.16-2.18   c-1.15,0-2.18,0.9-2.18,2.18c0,1.3,1.08,2.16,2.18,2.16C432.86,287.47,433.83,286.55,433.83,285.31z"
   id="path1302" />
	<path
   class="st1"
   d="M447.3,285.31c0,2.7-1.96,4.38-4.12,4.38c-0.96,0-2.11-0.36-2.7-1.21v5.17h-2.36v-12.51h2.36v1.01   c0.59-0.85,1.75-1.22,2.7-1.22C445.33,280.92,447.3,282.61,447.3,285.31z M444.88,285.31c0-1.22-0.97-2.18-2.16-2.18   c-1.15,0-2.18,0.9-2.18,2.18c0,1.3,1.08,2.16,2.18,2.16C443.91,287.47,444.88,286.55,444.88,285.31z"
   id="path1304" />
	<path
   class="st1"
   d="M453.13,278.21c0-0.79,0.68-1.4,1.49-1.4c0.83,0,1.49,0.61,1.49,1.4s-0.67,1.42-1.49,1.42   C453.81,279.64,453.13,279.01,453.13,278.21z M453.45,281.13h2.36v8.39h-2.36V281.13z"
   id="path1306" />
	<path
   class="st1"
   d="M466.39,284.91v4.61h-2.36v-4.36c0-1.33-0.79-1.93-1.6-1.93c-0.85,0-1.89,0.45-1.89,1.98v4.3h-2.36v-8.39h2.36   v1.4c0.36-1.13,1.69-1.62,2.52-1.62C465.26,280.92,466.41,282.39,466.39,284.91z"
   id="path1308" />
	<path
   class="st1"
   d="M83.43,302.73v8.39h-2.36v-1.04c-0.59,0.83-1.76,1.21-2.7,1.21c-2.16,0-4.12-1.67-4.12-4.38   c0-2.7,1.96-4.38,4.12-4.38c0.97,0,2.11,0.36,2.7,1.21v-1.01H83.43z M81,306.91c0-1.3-1.08-2.16-2.18-2.16   c-1.19,0-2.18,0.92-2.18,2.16c0,1.22,0.99,2.18,2.18,2.18C79.97,309.09,81,308.19,81,306.91z"
   id="path1310" />
	<path
   class="st1"
   d="M102.28,302.73l-2.97,8.39h-2.02l-1.73-5.46l-1.67,5.46h-2.02l-3.06-8.39h2.56l1.58,5.11l1.6-5.11h1.98   l1.6,5.11l1.58-5.11H102.28z"
   id="path1312" />
	<path
   class="st1"
   d="M111.75,307.68h-6.34c0.25,0.97,1.04,1.51,2.18,1.51c0.85,0,1.69-0.34,2.2-0.94l1.39,1.39   c-0.79,1.06-2.27,1.64-3.75,1.64c-2.57,0-4.46-1.76-4.46-4.36c0-2.72,2.05-4.41,4.46-4.41c2.4,0,4.36,1.69,4.36,4.27   C111.78,307.02,111.76,307.3,111.75,307.68z M109.42,306.15c-0.07-0.99-0.9-1.58-1.96-1.58c-0.95,0-1.8,0.45-2.05,1.58H109.42z"
   id="path1314" />
	<path
   class="st1"
   d="M121.88,307.68h-6.34c0.25,0.97,1.04,1.51,2.18,1.51c0.85,0,1.69-0.34,2.2-0.94l1.39,1.39   c-0.79,1.06-2.27,1.64-3.75,1.64c-2.57,0-4.46-1.76-4.46-4.36c0-2.72,2.05-4.41,4.46-4.41c2.4,0,4.36,1.69,4.36,4.27   C121.92,307.02,121.9,307.3,121.88,307.68z M119.56,306.15c-0.07-0.99-0.9-1.58-1.96-1.58c-0.95,0-1.8,0.45-2.05,1.58H119.56z"
   id="path1316" />
	<path
   class="st1"
   d="M129.04,311.12l-2.95-3.64v3.64h-2.36v-12.87h2.36v7.04l2.13-2.56h3.03l-3.28,3.69l4.01,4.7H129.04z"
   id="path1318" />
	<path
   class="st1"
   d="M140.76,307.68h-6.34c0.25,0.97,1.04,1.51,2.18,1.51c0.85,0,1.69-0.34,2.2-0.94l1.39,1.39   c-0.79,1.06-2.27,1.64-3.75,1.64c-2.57,0-4.46-1.76-4.46-4.36c0-2.72,2.05-4.41,4.46-4.41c2.4,0,4.36,1.69,4.36,4.27   C140.8,307.02,140.78,307.3,140.76,307.68z M138.44,306.15c-0.07-0.99-0.9-1.58-1.96-1.58c-0.95,0-1.8,0.45-2.05,1.58H138.44z"
   id="path1320" />
	<path
   class="st1"
   d="M150.82,306.51v4.61h-2.36v-4.36c0-1.33-0.79-1.93-1.6-1.93c-0.85,0-1.89,0.45-1.89,1.98v4.3h-2.36v-8.39h2.36   v1.4c0.36-1.13,1.69-1.62,2.52-1.62C149.69,302.51,150.84,303.99,150.82,306.51z"
   id="path1322" />
	<path
   class="st1"
   d="M161.77,298.25v12.87h-2.36v-1.04c-0.59,0.83-1.76,1.21-2.7,1.21c-2.16,0-4.12-1.67-4.12-4.38   c0-2.7,1.96-4.38,4.12-4.38c0.97,0,2.11,0.36,2.7,1.21v-5.49H161.77z M159.34,306.91c0-1.3-1.08-2.16-2.18-2.16   c-1.19,0-2.18,0.92-2.18,2.16c0,1.22,0.99,2.18,2.18,2.18C158.31,309.09,159.34,308.19,159.34,306.91z"
   id="path1324" />
	<path
   class="st1"
   d="M163.82,309.82c0-0.83,0.68-1.44,1.5-1.44c0.83,0,1.53,0.61,1.53,1.44c0,0.85-0.7,1.46-1.53,1.46   C164.5,311.28,163.82,310.67,163.82,309.82z"
   id="path1326" />
	<path
   class="st1"
   d="M182.75,298.72v12.41h-2.25l-4.5-7.78v7.78h-2.5v-12.41h2.32l4.43,7.69v-7.69H182.75z"
   id="path1328" />
	<path
   class="st1"
   d="M184.75,306.91c0-2.67,2.13-4.39,4.52-4.39s4.52,1.73,4.52,4.39c0,2.65-2.13,4.38-4.52,4.38   S184.75,309.55,184.75,306.91z M191.39,306.91c0-1.31-0.95-2.2-2.13-2.2c-1.17,0-2.12,0.88-2.12,2.2c0,1.3,0.95,2.18,2.12,2.18   C190.44,309.09,191.39,308.2,191.39,306.91z"
   id="path1330" />
	<path
   class="st1"
   d="M208.21,307.68h-6.34c0.25,0.97,1.04,1.51,2.18,1.51c0.85,0,1.69-0.34,2.2-0.94l1.39,1.39   c-0.79,1.06-2.27,1.64-3.75,1.64c-2.58,0-4.47-1.76-4.47-4.36c0-2.72,2.05-4.41,4.47-4.41c2.39,0,4.36,1.69,4.36,4.27   C208.24,307.02,208.22,307.3,208.21,307.68z M205.88,306.15c-0.07-0.99-0.9-1.58-1.96-1.58c-0.95,0-1.8,0.45-2.05,1.58H205.88z"
   id="path1332" />
	<path
   class="st1"
   d="M215.08,311.12l-1.85-2.68l-1.89,2.68h-2.77l3.33-4.56l-2.77-3.83h2.79l1.33,1.93l1.3-1.93h2.77l-2.77,3.83   l3.29,4.56H215.08z"
   id="path1334" />
	<path
   class="st1"
   d="M228.26,306.91c0,2.7-1.96,4.38-4.12,4.38c-0.96,0-2.11-0.36-2.7-1.21v5.17h-2.36v-12.51h2.36v1.01   c0.59-0.85,1.75-1.22,2.7-1.22C226.29,302.51,228.26,304.21,228.26,306.91z M225.84,306.91c0-1.22-0.97-2.18-2.16-2.18   c-1.15,0-2.18,0.9-2.18,2.18c0,1.3,1.08,2.16,2.18,2.16C224.87,309.07,225.84,308.15,225.84,306.91z"
   id="path1336" />
	<path
   class="st1"
   d="M238.41,307.68h-6.34c0.25,0.97,1.04,1.51,2.18,1.51c0.85,0,1.69-0.34,2.2-0.94l1.39,1.39   c-0.79,1.06-2.27,1.64-3.75,1.64c-2.57,0-4.46-1.76-4.46-4.36c0-2.72,2.05-4.41,4.46-4.41c2.4,0,4.36,1.69,4.36,4.27   C238.45,307.02,238.43,307.3,238.41,307.68z M236.09,306.15c-0.07-0.99-0.9-1.58-1.96-1.58c-0.95,0-1.8,0.45-2.05,1.58H236.09z"
   id="path1338" />
	<path
   class="st1"
   d="M246.4,302.78l-0.54,2.25c-0.5-0.27-0.92-0.31-1.21-0.31c-1.21,0-2.04,1.12-2.04,3.51v2.88h-2.36v-8.39h2.34   v1.78c0.47-1.4,1.42-2,2.47-2C245.52,302.51,246.02,302.59,246.4,302.78z"
   id="path1340" />
	<path
   class="st1"
   d="M247.35,299.81c0-0.79,0.68-1.4,1.49-1.4c0.83,0,1.49,0.61,1.49,1.4s-0.67,1.42-1.49,1.42   C248.04,301.24,247.35,300.61,247.35,299.81z M247.68,302.73h2.36v8.39h-2.36V302.73z"
   id="path1342" />
	<path
   class="st1"
   d="M260.69,307.68h-6.34c0.25,0.97,1.04,1.51,2.18,1.51c0.85,0,1.69-0.34,2.2-0.94l1.39,1.39   c-0.79,1.06-2.27,1.64-3.75,1.64c-2.57,0-4.46-1.76-4.46-4.36c0-2.72,2.05-4.41,4.46-4.41c2.4,0,4.36,1.69,4.36,4.27   C260.73,307.02,260.71,307.3,260.69,307.68z M258.37,306.15c-0.07-0.99-0.9-1.58-1.96-1.58c-0.95,0-1.8,0.45-2.05,1.58H258.37z"
   id="path1344" />
	<path
   class="st1"
   d="M270.75,306.51v4.61h-2.36v-4.36c0-1.33-0.79-1.93-1.6-1.93c-0.85,0-1.89,0.45-1.89,1.98v4.3h-2.36v-8.39h2.36   v1.4c0.36-1.13,1.69-1.62,2.52-1.62C269.62,302.51,270.77,303.99,270.75,306.51z"
   id="path1346" />
	<path
   class="st1"
   d="M272.5,306.89c0-2.67,2.16-4.38,4.61-4.38c1.53,0,2.75,0.72,3.55,1.8l-1.76,1.24   c-0.38-0.52-1.08-0.85-1.76-0.85c-1.33,0-2.23,0.95-2.23,2.18c0,1.24,0.9,2.2,2.23,2.2c0.68,0,1.39-0.32,1.76-0.85l1.76,1.24   c-0.79,1.1-2.02,1.8-3.55,1.8C274.66,311.28,272.5,309.55,272.5,306.89z"
   id="path1348" />
	<path
   class="st1"
   d="M290.46,307.68h-6.34c0.25,0.97,1.04,1.51,2.18,1.51c0.85,0,1.69-0.34,2.2-0.94l1.39,1.39   c-0.79,1.06-2.27,1.64-3.75,1.64c-2.57,0-4.46-1.76-4.46-4.36c0-2.72,2.05-4.41,4.46-4.41c2.4,0,4.36,1.69,4.36,4.27   C290.5,307.02,290.48,307.3,290.46,307.68z M288.14,306.15c-0.07-0.99-0.9-1.58-1.96-1.58c-0.95,0-1.8,0.45-2.05,1.58H288.14z"
   id="path1350" />
	<path
   class="st1"
   d="M304.81,306.51v4.61h-2.36v-4.36c0-1.33-0.79-1.93-1.6-1.93c-0.85,0-1.89,0.45-1.89,1.98v4.3h-2.36v-8.39h2.36   v1.4c0.36-1.13,1.69-1.62,2.52-1.62C303.68,302.51,304.83,303.99,304.81,306.51z"
   id="path1352" />
	<path
   class="st1"
   d="M315.36,307.68h-6.34c0.25,0.97,1.04,1.51,2.18,1.51c0.85,0,1.69-0.34,2.2-0.94l1.39,1.39   c-0.79,1.06-2.27,1.64-3.75,1.64c-2.57,0-4.46-1.76-4.46-4.36c0-2.72,2.05-4.41,4.46-4.41c2.4,0,4.36,1.69,4.36,4.27   C315.39,307.02,315.38,307.3,315.36,307.68z M313.04,306.15c-0.07-0.99-0.9-1.58-1.96-1.58c-0.95,0-1.8,0.45-2.05,1.58H313.04z"
   id="path1354" />
	<path
   class="st1"
   d="M316.69,306.89c0-2.67,2.16-4.38,4.61-4.38c1.53,0,2.75,0.72,3.55,1.8l-1.76,1.24   c-0.38-0.52-1.08-0.85-1.76-0.85c-1.33,0-2.23,0.95-2.23,2.18c0,1.24,0.9,2.2,2.23,2.2c0.68,0,1.39-0.32,1.76-0.85l1.76,1.24   c-0.79,1.1-2.02,1.8-3.55,1.8C318.85,311.28,316.69,309.55,316.69,306.89z"
   id="path1356" />
	<path
   class="st1"
   d="M334.65,307.68h-6.34c0.25,0.97,1.04,1.51,2.18,1.51c0.85,0,1.69-0.34,2.2-0.94l1.39,1.39   c-0.79,1.06-2.27,1.64-3.75,1.64c-2.57,0-4.46-1.76-4.46-4.36c0-2.72,2.05-4.41,4.46-4.41c2.4,0,4.36,1.69,4.36,4.27   C334.69,307.02,334.67,307.3,334.65,307.68z M332.33,306.15c-0.07-0.99-0.9-1.58-1.96-1.58c-0.95,0-1.8,0.45-2.05,1.58H332.33z"
   id="path1358" />
	<path
   class="st1"
   d="M335.98,308.42h2.21c0,0.49,0.41,1.01,1.24,1.01c0.68,0,1.21-0.29,1.21-0.77c0-0.36-0.29-0.54-0.92-0.7   l-1.12-0.27c-2.16-0.58-2.45-1.78-2.45-2.66c0-1.3,1.35-2.5,3.29-2.5c1.53,0,3.33,0.76,3.31,2.74h-2.25c0-0.56-0.47-0.86-1.03-0.86   c-0.54,0-0.97,0.27-0.97,0.7c0,0.4,0.36,0.59,0.83,0.72l1.39,0.36c2.02,0.54,2.27,1.8,2.27,2.48c0,1.76-1.8,2.63-3.53,2.63   C337.71,311.28,336,310.27,335.98,308.42z"
   id="path1360" />
	<path
   class="st1"
   d="M344.35,308.42h2.21c0,0.49,0.41,1.01,1.24,1.01c0.68,0,1.21-0.29,1.21-0.77c0-0.36-0.29-0.54-0.92-0.7   l-1.12-0.27c-2.16-0.58-2.45-1.78-2.45-2.66c0-1.3,1.35-2.5,3.29-2.5c1.53,0,3.33,0.76,3.31,2.74h-2.25c0-0.56-0.47-0.86-1.03-0.86   c-0.54,0-0.97,0.27-0.97,0.7c0,0.4,0.36,0.59,0.83,0.72l1.39,0.36c2.02,0.54,2.27,1.8,2.27,2.48c0,1.76-1.8,2.63-3.53,2.63   C346.08,311.28,344.37,310.27,344.35,308.42z"
   id="path1362" />
	<path
   class="st1"
   d="M361.92,302.73v8.39h-2.36v-1.04c-0.59,0.83-1.76,1.21-2.7,1.21c-2.16,0-4.12-1.67-4.12-4.38   c0-2.7,1.96-4.38,4.12-4.38c0.97,0,2.11,0.36,2.7,1.21v-1.01H361.92z M359.49,306.91c0-1.3-1.08-2.16-2.18-2.16   c-1.19,0-2.18,0.92-2.18,2.16c0,1.22,0.99,2.18,2.18,2.18C358.47,309.09,359.49,308.19,359.49,306.91z"
   id="path1364" />
	<path
   class="st1"
   d="M370.44,302.78l-0.54,2.25c-0.5-0.27-0.92-0.31-1.21-0.31c-1.21,0-2.03,1.12-2.03,3.51v2.88h-2.36v-8.39h2.34   v1.78c0.47-1.4,1.42-2,2.47-2C369.55,302.51,370.06,302.59,370.44,302.78z"
   id="path1366" />
	<path
   class="st1"
   d="M379.67,302.73l-5.19,12.51h-2.52l1.98-4.92l-3.31-7.6h2.59l1.98,4.84l1.93-4.84H379.67z"
   id="path1368" />
	<path
   class="st1"
   d="M379.76,309.82c0-0.83,0.68-1.44,1.5-1.44c0.83,0,1.53,0.61,1.53,1.44c0,0.85-0.7,1.46-1.53,1.46   C380.44,311.28,379.76,310.67,379.76,309.82z"
   id="path1370" />
</g>

<g
   id="g1386">
	<text
   transform="matrix(1 0 0 1 261.1732 353.9587)"
   id="text1384"><tspan
     x="0"
     y="0"
     class="st3 st4 st6"
     id="tspan1380">{%if promo%}{{promo}} for {%if promoFor%}{{promoFor}}{%else%}a discount{%endif%}{%else%}Get your tickets{%endif%} @</tspan><tspan
     x="0"
     y="21.6"
     class="st3 st4 st6"
     id="tspan1382">CodeDay.org/{{url}}</tspan></text>


</g>
</svg>
