<?xml version="1.0" encoding="UTF-8" standalone="no"?>
<!-- Generator: Adobe Illustrator 23.1.0, SVG Export Plug-In . SVG Version: 6.00 Build 0)  -->

<svg
   xmlns:dc="http://purl.org/dc/elements/1.1/"
   xmlns:cc="http://creativecommons.org/ns#"
   xmlns:rdf="http://www.w3.org/1999/02/22-rdf-syntax-ns#"
   xmlns:svg="http://www.w3.org/2000/svg"
   xmlns="http://www.w3.org/2000/svg"
   xmlns:sodipodi="http://sodipodi.sourceforge.net/DTD/sodipodi-0.dtd"
   xmlns:inkscape="http://www.inkscape.org/namespaces/inkscape"
   version="1.1"
   id="Layer_1"
   x="0px"
   y="0px"
   viewBox="0 0 576 576"
   xml:space="preserve"
   sodipodi:docname="socialHardShadowOrange.svg"
   inkscape:version="0.92.3 (2405546, 2018-03-11)"
   width="1080"
   height="1080"><metadata
   id="metadata1393"><rdf:RDF><cc:Work
       rdf:about=""><dc:format>image/svg+xml</dc:format><dc:type
         rdf:resource="http://purl.org/dc/dcmitype/StillImage" /></cc:Work></rdf:RDF></metadata><defs
   id="defs1391" /><sodipodi:namedview
   pagecolor="#ffffff"
   bordercolor="#666666"
   borderopacity="1"
   objecttolerance="10"
   gridtolerance="10"
   guidetolerance="10"
   inkscape:pageopacity="0"
   inkscape:pageshadow="2"
   inkscape:window-width="1918"
   inkscape:window-height="1060"
   id="namedview1389"
   showgrid="false"
   inkscape:zoom="0.54015102"
   inkscape:cx="245.58703"
   inkscape:cy="539.65146"
   inkscape:window-x="0"
   inkscape:window-y="18"
   inkscape:window-maximized="0"
   inkscape:current-layer="Layer_1" />
<style
   type="text/css"
   id="style1192">
	.st0{fill:#F6E0C9;}
	.st1{fill:#DB8427;}
	.st2{fill:#FFFFFF;}
	.st3{fill:#EFC79C;}
	.st4{font-family:'Sofia Pro';font-weight: 700;}
	.st5{font-size:26.6364px;}
	.st6{font-size:18px;}
	.st7{fill:none;stroke:#EFC79C;stroke-width:6;stroke-miterlimit:10;}
	.st8{fill:#EFD8E9;}
	.st9{fill:#C94F9D;}
	.st10{fill:none;stroke:#D993C0;stroke-width:6;stroke-miterlimit:10;}
	.st11{fill:#D993C0;}
</style>
<rect
   class="st0"
   width="576"
   height="576"
   id="rect1194"
   x="0"
   y="0"
   style="fill:#f6e0c9" />
<g
   id="g1204">
	<rect
   x="79.830002"
   y="175.3"
   class="st1"
   width="447.64999"
   height="256.70001"
   id="rect1196"
   style="fill:#db8427" />
	<g
   id="g1202">
		<rect
   x="51.52"
   y="147"
   class="st2"
   width="441.64999"
   height="250.7"
   id="rect1198"
   style="fill:#ffffff" />
		<path
   class="st1"
   d="M 490.17,150 V 394.7 H 54.52 V 150 h 435.65 m 6,-6 H 48.52 v 256.7 h 447.65 z"
   id="path1200"
   inkscape:connector-curvature="0"
   style="fill:#db8427" />
	</g>
</g>
<g
   id="g1220">
	<path
   class="st1"
   d="m 101.69,233.65 v 1.79 c 0,2.46 -2.13,4.93 -4.71,5.6 l -18.83,4.71 c -2.46,0.67 -4.59,-0.78 -4.59,-3.25 v -70.15 c 0,-2.47 2.13,-4.93 4.59,-5.49 l 18.83,-4.82 c 2.58,-0.56 4.71,0.78 4.71,3.25 v 2.02 l -9.3,2.13 v -2.13 c 0,-1.91 -1.79,-3.14 -3.92,-2.58 l -1.68,0.45 c -2.02,0.56 -3.92,2.58 -3.92,4.59 v 70.6 c 0,2.13 1.68,3.25 3.81,2.8 l 1.79,-0.45 c 2.13,-0.56 3.92,-2.69 3.92,-4.71 v -2.13 z"
   id="path1206"
   inkscape:connector-curvature="0"
   style="fill:#db8427" />
	<path
   class="st1"
   d="m 136.32,184.8 v 50.65 c 0,2.46 -2.13,4.93 -4.71,5.6 l -18.83,4.71 c -2.47,0.56 -4.71,-0.78 -4.71,-3.25 v -50.76 c 0,-2.35 2.24,-4.82 4.71,-5.49 l 18.83,-4.71 c 2.58,-0.68 4.71,0.78 4.71,3.25 z m -9.41,2.01 c 0,-2.02 -1.68,-3.25 -3.81,-2.69 l -1.68,0.45 c -2.13,0.56 -3.92,2.58 -3.92,4.59 v 51.21 c 0,2.02 1.79,3.25 3.92,2.69 l 1.68,-0.34 c 2.13,-0.56 3.81,-2.69 3.81,-4.59 z"
   id="path1208"
   inkscape:connector-curvature="0"
   style="fill:#db8427" />
	<path
   class="st1"
   d="m 170.72,239.71 c 0,0 -2.02,0.67 -23.42,6.05 -2.58,0.56 -4.71,-0.9 -4.71,-3.25 v -47.63 c 0,-2.46 2.13,-4.93 4.71,-5.49 l 14.01,-3.59 v -22.64 l 9.41,-2.35 c 0,11.21 0,11.21 0,78.9 z m -9.41,-49.87 c 0,-1.9 -1.68,-3.14 -3.81,-2.58 l -1.68,0.45 c -2.13,0.45 -3.92,2.58 -3.92,4.48 v 48.3 c 0,1.9 1.79,3.14 3.92,2.58 l 1.79,-0.45 c 2.13,-0.56 3.7,-2.58 3.7,-4.59 z"
   id="path1210"
   inkscape:connector-curvature="0"
   style="fill:#db8427" />
	<path
   class="st1"
   d="m 186.52,215.16 v 25.21 c 0,2.02 1.79,3.14 3.92,2.69 l 1.68,-0.45 c 2.13,-0.56 3.81,-2.58 3.81,-4.59 v -2.13 l 9.41,-2.35 v 1.79 c 0,2.47 -2.13,4.93 -4.71,5.6 l -18.83,4.71 c -2.58,0.67 -4.71,-0.78 -4.71,-3.25 v -50.76 c 0,-2.35 2.13,-4.82 4.71,-5.49 l 18.83,-4.71 c 2.58,-0.67 4.71,0.78 4.71,3.25 v 25.77 l -18.83,4.82 v -0.11 z m 0,-26.11 v 24.88 l 9.41,-2.35 V 186.7 c 0,-2.02 -1.68,-3.14 -3.81,-2.58 l -1.68,0.34 c -2.12,0.56 -3.92,2.58 -3.92,4.59 z"
   id="path1212"
   inkscape:connector-curvature="0"
   style="fill:#db8427" />
	<path
   class="st1"
   d="m 239.75,164.29 v 70.15 c 0,2.47 -2.13,4.82 -4.71,5.49 l -23.42,5.94 v -79 l 23.42,-5.83 c 2.59,-0.56 4.71,0.78 4.71,3.25 z m -9.3,2.13 c 0,-2.02 -1.68,-3.25 -3.81,-2.69 l -5.71,1.34 v 77.99 l 5.71,-1.46 c 2.02,-0.45 3.81,-2.58 3.81,-4.59 z"
   id="path1214"
   inkscape:connector-curvature="0"
   style="fill:#db8427" />
	<path
   class="st1"
   d="m 274.27,184.68 v 55.02 c 0,0 -2.13,0.67 -4.71,1.34 l -18.71,4.71 c -2.58,0.56 -4.71,-0.9 -4.71,-3.25 v -35.52 c 0,-2.46 2.13,-4.93 4.71,-5.6 l 14.01,-3.47 v -11.09 c 0,-2.02 -1.68,-3.25 -3.81,-2.69 l -1.68,0.45 c -2.13,0.56 -3.92,2.58 -3.92,4.48 v 2.24 l -9.3,2.35 v -1.91 c 0,-2.35 2.13,-4.93 4.71,-5.49 l 18.71,-4.71 c 2.57,-0.67 4.7,0.79 4.7,3.14 z m -9.41,17.26 c 0,-2.02 -1.68,-3.14 -3.81,-2.69 l -1.68,0.45 c -2.13,0.56 -3.92,2.58 -3.92,4.59 v 33.95 2.24 c 0,1.9 1.79,3.03 3.92,2.58 l 1.68,-0.45 c 2.13,-0.56 3.81,-2.58 3.81,-4.59 z"
   id="path1216"
   inkscape:connector-curvature="0"
   style="fill:#db8427" />
	<path
   class="st1"
   d="m 308.67,182.33 v 75.42 c 0,2.47 -2.02,4.93 -4.59,5.6 l -18.83,4.71 c -2.58,0.67 -4.59,-0.78 -4.59,-3.25 v -1.9 l 9.3,-2.35 v 2.24 c 0,1.9 1.68,3.14 3.81,2.58 l 1.79,-0.45 c 2.13,-0.45 3.81,-2.58 3.81,-4.59 v -18.27 l -14.12,3.59 c -2.58,0.56 -4.59,-0.9 -4.59,-3.25 v -53 l 9.3,-2.35 v 53.34 c 0,1.9 1.68,3.14 3.81,2.58 l 1.68,-0.45 c 2.13,-0.56 3.92,-2.58 3.92,-4.59 v -53.23 -0.11 z"
   id="path1218"
   inkscape:connector-curvature="0"
   style="fill:#db8427" />
</g>
<text
   id="text1226"
   x="204.91"
   y="365.71069"><tspan
     x="200.87595"
     y="365.71069"
     class="st3 st4 st5"
     id="tspan1222"
     style="font-weight:700;font-size:26.63640022px;font-family:'Sofia Pro';text-align:end;text-anchor:end;fill:#efc79c">{{short_month}} {{day}}-{{day+1}}</tspan></text>




<line
   class="st7"
   x1="232.58"
   y1="338.64999"
   x2="232.58"
   y2="380.13"
   id="line1228"
   style="fill:none;stroke:#efc79c;stroke-width:6;stroke-miterlimit:10" />
<g
   id="g1372">
	<path
   class="st1"
   d="m 81.78,286.55 h -4.65 l -0.99,2.97 h -2.67 l 4.63,-12.41 h 2.7 l 4.61,12.41 h -2.63 z m -0.76,-2.18 -1.58,-4.66 -1.57,4.66 z"
   id="path1230"
   inkscape:connector-curvature="0"
   style="fill:#db8427" />
	<path
   class="st1"
   d="m 92.65,281.18 -0.54,2.25 c -0.5,-0.27 -0.92,-0.31 -1.21,-0.31 -1.21,0 -2.04,1.12 -2.04,3.51 v 2.88 H 86.5 v -8.39 h 2.34 v 1.78 c 0.47,-1.4 1.42,-2 2.47,-2 0.45,0.02 0.96,0.09 1.34,0.28 z"
   id="path1232"
   inkscape:connector-curvature="0"
   style="fill:#db8427" />
	<path
   class="st1"
   d="m 98.87,282.95 h -1.78 v 6.57 h -2.36 v -6.57 H 93.2 v -1.82 h 1.53 v -3.08 h 2.36 v 3.08 h 1.78 z"
   id="path1234"
   inkscape:connector-curvature="0"
   style="fill:#db8427" />
	<path
   class="st1"
   d="m 100.08,278.21 c 0,-0.79 0.68,-1.4 1.5,-1.4 0.83,0 1.49,0.61 1.49,1.4 0,0.79 -0.67,1.42 -1.49,1.42 -0.82,0.01 -1.5,-0.62 -1.5,-1.42 z m 0.32,2.92 h 2.36 v 8.39 h -2.36 z"
   id="path1236"
   inkscape:connector-curvature="0"
   style="fill:#db8427" />
	<path
   class="st1"
   d="m 104.61,286.82 h 2.21 c 0,0.49 0.41,1.01 1.24,1.01 0.68,0 1.21,-0.29 1.21,-0.77 0,-0.36 -0.29,-0.54 -0.92,-0.7 l -1.12,-0.27 c -2.16,-0.58 -2.45,-1.78 -2.45,-2.66 0,-1.3 1.35,-2.5 3.29,-2.5 1.53,0 3.33,0.76 3.31,2.74 h -2.25 c 0,-0.56 -0.47,-0.86 -1.03,-0.86 -0.54,0 -0.97,0.27 -0.97,0.7 0,0.4 0.36,0.59 0.83,0.72 l 1.39,0.36 c 2.02,0.54 2.27,1.8 2.27,2.48 0,1.76 -1.8,2.63 -3.53,2.63 -1.75,-0.02 -3.46,-1.03 -3.48,-2.88 z"
   id="path1238"
   inkscape:connector-curvature="0"
   style="fill:#db8427" />
	<path
   class="st1"
   d="m 118.4,282.95 h -1.78 v 6.57 h -2.36 v -6.57 h -1.53 v -1.82 h 1.53 v -3.08 h 2.36 v 3.08 h 1.78 z"
   id="path1240"
   inkscape:connector-curvature="0"
   style="fill:#db8427" />
	<path
   class="st1"
   d="m 119.34,286.82 h 2.21 c 0,0.49 0.41,1.01 1.24,1.01 0.68,0 1.21,-0.29 1.21,-0.77 0,-0.36 -0.29,-0.54 -0.92,-0.7 l -1.12,-0.27 c -2.16,-0.58 -2.45,-1.78 -2.45,-2.66 0,-1.3 1.35,-2.5 3.29,-2.5 1.53,0 3.33,0.76 3.31,2.74 h -2.25 c 0,-0.56 -0.47,-0.86 -1.03,-0.86 -0.54,0 -0.97,0.27 -0.97,0.7 0,0.4 0.36,0.59 0.83,0.72 l 1.39,0.36 c 2.02,0.54 2.27,1.8 2.27,2.48 0,1.76 -1.8,2.63 -3.53,2.63 -1.75,-0.02 -3.46,-1.03 -3.48,-2.88 z"
   id="path1242"
   inkscape:connector-curvature="0"
   style="fill:#db8427" />
	<path
   class="st1"
   d="m 126.83,291.88 c 1.08,-1.48 1.55,-2.75 1.44,-4.7 h 2.23 c 0.07,2.27 -1.04,4.14 -2.32,5.28 z"
   id="path1244"
   inkscape:connector-curvature="0"
   style="fill:#db8427" />
	<path
   class="st1"
   d="m 150.54,284.91 v 4.61 h -2.38 v -4.43 c 0,-1.31 -0.68,-1.85 -1.51,-1.85 -0.94,-0.02 -1.6,0.58 -1.66,1.84 v 4.45 h -2.36 v -4.45 c 0,-1.31 -0.68,-1.84 -1.48,-1.84 -0.85,0 -1.71,0.4 -1.71,1.91 v 4.38 h -2.36 v -8.39 h 2.36 v 1.49 c 0.25,-1.15 1.44,-1.71 2.38,-1.71 1.24,0 2.21,0.59 2.7,1.62 0.65,-1.22 1.94,-1.62 2.81,-1.62 2.11,0 3.21,1.47 3.21,3.99 z"
   id="path1246"
   inkscape:connector-curvature="0"
   style="fill:#db8427" />
	<path
   class="st1"
   d="m 160.88,281.13 v 8.39 h -2.36 v -1.37 c -0.36,1.1 -1.69,1.57 -2.52,1.57 -2.2,0 -3.35,-1.46 -3.33,-3.98 v -4.61 h 2.36 v 4.36 c 0,1.31 0.79,1.91 1.6,1.91 0.85,0 1.89,-0.45 1.89,-1.96 v -4.3 h 2.36 z"
   id="path1248"
   inkscape:connector-curvature="0"
   style="fill:#db8427" />
	<path
   class="st1"
   d="m 162.74,286.82 h 2.21 c 0,0.49 0.41,1.01 1.24,1.01 0.68,0 1.21,-0.29 1.21,-0.77 0,-0.36 -0.29,-0.54 -0.92,-0.7 l -1.12,-0.27 c -2.16,-0.58 -2.45,-1.78 -2.45,-2.66 0,-1.3 1.35,-2.5 3.29,-2.5 1.53,0 3.33,0.76 3.31,2.74 h -2.25 c 0,-0.56 -0.47,-0.86 -1.03,-0.86 -0.54,0 -0.97,0.27 -0.97,0.7 0,0.4 0.36,0.59 0.83,0.72 l 1.39,0.36 c 2.02,0.54 2.27,1.8 2.27,2.48 0,1.76 -1.8,2.63 -3.53,2.63 -1.76,-0.02 -3.47,-1.03 -3.48,-2.88 z"
   id="path1250"
   inkscape:connector-curvature="0"
   style="fill:#db8427" />
	<path
   class="st1"
   d="m 171.3,278.21 c 0,-0.79 0.68,-1.4 1.49,-1.4 0.83,0 1.49,0.61 1.49,1.4 0,0.79 -0.67,1.42 -1.49,1.42 -0.8,0.01 -1.49,-0.62 -1.49,-1.42 z m 0.33,2.92 h 2.36 v 8.39 h -2.36 z"
   id="path1252"
   inkscape:connector-curvature="0"
   style="fill:#db8427" />
	<path
   class="st1"
   d="m 175.84,285.29 c 0,-2.67 2.16,-4.38 4.61,-4.38 1.53,0 2.75,0.72 3.55,1.8 l -1.76,1.24 c -0.38,-0.52 -1.08,-0.85 -1.76,-0.85 -1.33,0 -2.23,0.95 -2.23,2.18 0,1.24 0.9,2.2 2.23,2.2 0.68,0 1.39,-0.32 1.76,-0.85 l 1.76,1.24 c -0.79,1.1 -2.02,1.8 -3.55,1.8 -2.45,0.01 -4.61,-1.71 -4.61,-4.38 z"
   id="path1254"
   inkscape:connector-curvature="0"
   style="fill:#db8427" />
	<path
   class="st1"
   d="m 185.36,278.21 c 0,-0.79 0.68,-1.4 1.49,-1.4 0.83,0 1.49,0.61 1.49,1.4 0,0.79 -0.67,1.42 -1.49,1.42 -0.81,0.01 -1.49,-0.62 -1.49,-1.42 z m 0.33,2.92 h 2.36 v 8.39 h -2.36 z"
   id="path1256"
   inkscape:connector-curvature="0"
   style="fill:#db8427" />
	<path
   class="st1"
   d="m 199.1,281.13 v 8.39 h -2.36 v -1.04 c -0.59,0.83 -1.76,1.21 -2.7,1.21 -2.16,0 -4.12,-1.67 -4.12,-4.38 0,-2.7 1.96,-4.38 4.12,-4.38 0.97,0 2.11,0.36 2.7,1.21 v -1.01 z m -2.43,4.18 c 0,-1.3 -1.08,-2.16 -2.18,-2.16 -1.19,0 -2.18,0.92 -2.18,2.16 0,1.22 0.99,2.18 2.18,2.18 1.15,0 2.18,-0.9 2.18,-2.18 z"
   id="path1258"
   inkscape:connector-curvature="0"
   style="fill:#db8427" />
	<path
   class="st1"
   d="m 209.68,284.91 v 4.61 h -2.36 v -4.36 c 0,-1.33 -0.79,-1.93 -1.6,-1.93 -0.85,0 -1.89,0.45 -1.89,1.98 v 4.3 h -2.36 v -8.39 h 2.36 v 1.4 c 0.36,-1.13 1.69,-1.62 2.52,-1.62 2.2,0.02 3.35,1.49 3.33,4.01 z"
   id="path1260"
   inkscape:connector-curvature="0"
   style="fill:#db8427" />
	<path
   class="st1"
   d="m 211.42,286.82 h 2.21 c 0,0.49 0.41,1.01 1.24,1.01 0.68,0 1.21,-0.29 1.21,-0.77 0,-0.36 -0.29,-0.54 -0.92,-0.7 l -1.12,-0.27 c -2.16,-0.58 -2.45,-1.78 -2.45,-2.66 0,-1.3 1.35,-2.5 3.29,-2.5 1.53,0 3.33,0.76 3.31,2.74 h -2.25 c 0,-0.56 -0.47,-0.86 -1.03,-0.86 -0.54,0 -0.97,0.27 -0.97,0.7 0,0.4 0.36,0.59 0.83,0.72 l 1.39,0.36 c 2.02,0.54 2.27,1.8 2.27,2.48 0,1.76 -1.8,2.63 -3.53,2.63 -1.75,-0.02 -3.46,-1.03 -3.48,-2.88 z"
   id="path1262"
   inkscape:connector-curvature="0"
   style="fill:#db8427" />
	<path
   class="st1"
   d="m 218.91,291.88 c 1.08,-1.48 1.55,-2.75 1.44,-4.7 h 2.23 c 0.07,2.27 -1.04,4.14 -2.32,5.28 z"
   id="path1264"
   inkscape:connector-curvature="0"
   style="fill:#db8427" />
	<path
   class="st1"
   d="m 228.65,285.29 c 0,-2.67 2.16,-4.38 4.61,-4.38 1.53,0 2.75,0.72 3.55,1.8 l -1.76,1.24 c -0.38,-0.52 -1.08,-0.85 -1.76,-0.85 -1.33,0 -2.23,0.95 -2.23,2.18 0,1.24 0.9,2.2 2.23,2.2 0.68,0 1.39,-0.32 1.76,-0.85 l 1.76,1.24 c -0.79,1.1 -2.02,1.8 -3.55,1.8 -2.45,0.01 -4.61,-1.71 -4.61,-4.38 z"
   id="path1266"
   inkscape:connector-curvature="0"
   style="fill:#db8427" />
	<path
   class="st1"
   d="m 237.81,285.31 c 0,-2.67 2.13,-4.39 4.52,-4.39 2.39,0 4.52,1.73 4.52,4.39 0,2.65 -2.13,4.38 -4.52,4.38 -2.39,0 -4.52,-1.73 -4.52,-4.38 z m 6.65,0 c 0,-1.31 -0.95,-2.2 -2.13,-2.2 -1.17,0 -2.12,0.88 -2.12,2.2 0,1.3 0.95,2.18 2.12,2.18 1.17,0 2.13,-0.89 2.13,-2.18 z"
   id="path1268"
   inkscape:connector-curvature="0"
   style="fill:#db8427" />
	<path
   class="st1"
   d="m 257.38,276.65 v 12.87 h -2.36 v -1.04 c -0.59,0.83 -1.76,1.21 -2.7,1.21 -2.16,0 -4.12,-1.67 -4.12,-4.38 0,-2.7 1.96,-4.38 4.12,-4.38 0.97,0 2.11,0.36 2.7,1.21 v -5.49 z m -2.43,8.66 c 0,-1.3 -1.08,-2.16 -2.18,-2.16 -1.19,0 -2.18,0.92 -2.18,2.16 0,1.22 0.99,2.18 2.18,2.18 1.15,0 2.18,-0.9 2.18,-2.18 z"
   id="path1270"
   inkscape:connector-curvature="0"
   style="fill:#db8427" />
	<path
   class="st1"
   d="m 268.04,286.08 h -6.34 c 0.25,0.97 1.04,1.51 2.18,1.51 0.85,0 1.69,-0.34 2.2,-0.94 l 1.39,1.39 c -0.79,1.06 -2.27,1.64 -3.75,1.64 -2.57,0 -4.46,-1.76 -4.46,-4.36 0,-2.72 2.05,-4.41 4.46,-4.41 2.4,0 4.36,1.69 4.36,4.27 -0.01,0.24 -0.03,0.52 -0.04,0.9 z m -2.33,-1.53 c -0.07,-0.99 -0.9,-1.58 -1.96,-1.58 -0.95,0 -1.8,0.45 -2.05,1.58 z"
   id="path1272"
   inkscape:connector-curvature="0"
   style="fill:#db8427" />
	<path
   class="st1"
   d="m 276.03,281.18 -0.54,2.25 c -0.5,-0.27 -0.92,-0.31 -1.21,-0.31 -1.21,0 -2.04,1.12 -2.04,3.51 v 2.88 h -2.36 v -8.39 h 2.34 v 1.78 c 0.47,-1.4 1.42,-2 2.47,-2 0.46,0.02 0.96,0.09 1.34,0.28 z"
   id="path1274"
   inkscape:connector-curvature="0"
   style="fill:#db8427" />
	<path
   class="st1"
   d="m 276.66,286.82 h 2.21 c 0,0.49 0.41,1.01 1.24,1.01 0.68,0 1.21,-0.29 1.21,-0.77 0,-0.36 -0.29,-0.54 -0.92,-0.7 l -1.12,-0.27 c -2.16,-0.58 -2.45,-1.78 -2.45,-2.66 0,-1.3 1.35,-2.5 3.29,-2.5 1.53,0 3.33,0.76 3.31,2.74 h -2.25 c 0,-0.56 -0.47,-0.86 -1.03,-0.86 -0.54,0 -0.97,0.27 -0.97,0.7 0,0.4 0.36,0.59 0.83,0.72 l 1.39,0.36 c 2.02,0.54 2.27,1.8 2.27,2.48 0,1.76 -1.8,2.63 -3.53,2.63 -1.76,-0.02 -3.47,-1.03 -3.48,-2.88 z"
   id="path1276"
   inkscape:connector-curvature="0"
   style="fill:#db8427" />
	<path
   class="st1"
   d="m 285.4,282.39 c 0,-0.85 0.68,-1.46 1.51,-1.46 0.81,0 1.5,0.61 1.5,1.46 0,0.85 -0.68,1.44 -1.5,1.44 -0.82,0 -1.51,-0.59 -1.51,-1.44 z m 0,5.83 c 0,-0.83 0.68,-1.44 1.51,-1.44 0.81,0 1.5,0.61 1.5,1.44 0,0.85 -0.68,1.46 -1.5,1.46 -0.82,0 -1.51,-0.61 -1.51,-1.46 z"
   id="path1278"
   inkscape:connector-curvature="0"
   style="fill:#db8427" />
	<path
   class="st1"
   d="m 308.38,284.91 v 4.61 H 306 v -4.43 c 0,-1.31 -0.68,-1.85 -1.51,-1.85 -0.94,-0.02 -1.6,0.58 -1.66,1.84 v 4.45 h -2.36 v -4.45 c 0,-1.31 -0.68,-1.84 -1.48,-1.84 -0.85,0 -1.71,0.4 -1.71,1.91 v 4.38 h -2.36 v -8.39 h 2.36 v 1.49 c 0.25,-1.15 1.44,-1.71 2.38,-1.71 1.24,0 2.21,0.59 2.7,1.62 0.65,-1.22 1.95,-1.62 2.81,-1.62 2.11,0 3.21,1.47 3.21,3.99 z"
   id="path1280"
   inkscape:connector-curvature="0"
   style="fill:#db8427" />
	<path
   class="st1"
   d="m 319.3,281.13 v 8.39 h -2.36 v -1.04 c -0.59,0.83 -1.76,1.21 -2.7,1.21 -2.16,0 -4.12,-1.67 -4.12,-4.38 0,-2.7 1.96,-4.38 4.12,-4.38 0.97,0 2.11,0.36 2.7,1.21 v -1.01 z m -2.43,4.18 c 0,-1.3 -1.08,-2.16 -2.18,-2.16 -1.19,0 -2.18,0.92 -2.18,2.16 0,1.22 0.99,2.18 2.18,2.18 1.15,0 2.18,-0.9 2.18,-2.18 z"
   id="path1282"
   inkscape:connector-curvature="0"
   style="fill:#db8427" />
	<path
   class="st1"
   d="m 326.99,289.52 -2.95,-3.64 v 3.64 h -2.36 v -12.87 h 2.36 v 7.04 l 2.13,-2.56 h 3.02 l -3.28,3.69 4.02,4.7 z"
   id="path1284"
   inkscape:connector-curvature="0"
   style="fill:#db8427" />
	<path
   class="st1"
   d="m 338.7,286.08 h -6.34 c 0.25,0.97 1.04,1.51 2.18,1.51 0.85,0 1.69,-0.34 2.2,-0.94 l 1.39,1.39 c -0.79,1.06 -2.27,1.64 -3.75,1.64 -2.57,0 -4.46,-1.76 -4.46,-4.36 0,-2.72 2.05,-4.41 4.46,-4.41 2.4,0 4.36,1.69 4.36,4.27 0,0.24 -0.02,0.52 -0.04,0.9 z m -2.32,-1.53 c -0.07,-0.99 -0.9,-1.58 -1.96,-1.58 -0.95,0 -1.8,0.45 -2.05,1.58 z"
   id="path1286"
   inkscape:connector-curvature="0"
   style="fill:#db8427" />
	<path
   class="st1"
   d="m 353.52,281.13 v 8.39 h -2.36 v -1.04 c -0.59,0.83 -1.76,1.21 -2.7,1.21 -2.16,0 -4.12,-1.67 -4.12,-4.38 0,-2.7 1.96,-4.38 4.12,-4.38 0.97,0 2.11,0.36 2.7,1.21 v -1.01 z m -2.43,4.18 c 0,-1.3 -1.08,-2.16 -2.18,-2.16 -1.19,0 -2.18,0.92 -2.18,2.16 0,1.22 0.99,2.18 2.18,2.18 1.15,0 2.18,-0.9 2.18,-2.18 z"
   id="path1288"
   inkscape:connector-curvature="0"
   style="fill:#db8427" />
	<path
   class="st1"
   d="m 368.85,281.13 v 7.24 c 0,3.67 -1.85,5.38 -4.83,5.38 -1.8,0 -3.37,-1.01 -4.09,-2.56 l 1.96,-0.85 c 0.36,0.76 1.22,1.3 2.12,1.3 1.51,0 2.47,-0.83 2.47,-3.03 v -0.13 c -0.61,0.81 -1.76,1.19 -2.7,1.19 -2.16,0 -4.12,-1.67 -4.12,-4.38 0,-2.7 1.96,-4.38 4.12,-4.38 0.95,0 2.09,0.38 2.7,1.19 v -0.99 h 2.37 z m -2.43,4.18 c 0,-1.3 -1.08,-2.16 -2.18,-2.16 -1.19,0 -2.18,0.92 -2.18,2.16 0,1.22 0.99,2.18 2.18,2.18 1.16,0 2.18,-0.9 2.18,-2.18 z"
   id="path1290"
   inkscape:connector-curvature="0"
   style="fill:#db8427" />
	<path
   class="st1"
   d="m 379.91,281.13 v 8.39 h -2.36 v -1.04 c -0.59,0.83 -1.76,1.21 -2.7,1.21 -2.16,0 -4.12,-1.67 -4.12,-4.38 0,-2.7 1.96,-4.38 4.12,-4.38 0.97,0 2.11,0.36 2.7,1.21 v -1.01 z m -2.44,4.18 c 0,-1.3 -1.08,-2.16 -2.18,-2.16 -1.19,0 -2.18,0.92 -2.18,2.16 0,1.22 0.99,2.18 2.18,2.18 1.16,0 2.18,-0.9 2.18,-2.18 z"
   id="path1292"
   inkscape:connector-curvature="0"
   style="fill:#db8427" />
	<path
   class="st1"
   d="m 395.73,284.91 v 4.61 h -2.38 v -4.43 c 0,-1.31 -0.68,-1.85 -1.51,-1.85 -0.94,-0.02 -1.6,0.58 -1.66,1.84 v 4.45 h -2.36 v -4.45 c 0,-1.31 -0.68,-1.84 -1.48,-1.84 -0.85,0 -1.71,0.4 -1.71,1.91 v 4.38 h -2.36 v -8.39 h 2.36 v 1.49 c 0.25,-1.15 1.44,-1.71 2.38,-1.71 1.24,0 2.21,0.59 2.7,1.62 0.65,-1.22 1.94,-1.62 2.81,-1.62 2.11,0 3.21,1.47 3.21,3.99 z"
   id="path1294"
   inkscape:connector-curvature="0"
   style="fill:#db8427" />
	<path
   class="st1"
   d="m 406.26,286.08 h -6.34 c 0.25,0.97 1.04,1.51 2.18,1.51 0.85,0 1.69,-0.34 2.2,-0.94 l 1.39,1.39 c -0.79,1.06 -2.27,1.64 -3.75,1.64 -2.58,0 -4.47,-1.76 -4.47,-4.36 0,-2.72 2.05,-4.41 4.47,-4.41 2.39,0 4.36,1.69 4.36,4.27 -0.01,0.24 -0.03,0.52 -0.04,0.9 z m -2.33,-1.53 c -0.07,-0.99 -0.9,-1.58 -1.96,-1.58 -0.95,0 -1.8,0.45 -2.05,1.58 z"
   id="path1296"
   inkscape:connector-curvature="0"
   style="fill:#db8427" />
	<path
   class="st1"
   d="m 413.33,277.12 h 1.89 l -5.98,12.41 h -1.89 z"
   id="path1298"
   inkscape:connector-curvature="0"
   style="fill:#db8427" />
	<path
   class="st1"
   d="m 424.69,281.13 v 8.39 h -2.36 v -1.04 c -0.59,0.83 -1.76,1.21 -2.7,1.21 -2.16,0 -4.12,-1.67 -4.12,-4.38 0,-2.7 1.96,-4.38 4.12,-4.38 0.97,0 2.11,0.36 2.7,1.21 v -1.01 z m -2.43,4.18 c 0,-1.3 -1.08,-2.16 -2.18,-2.16 -1.19,0 -2.18,0.92 -2.18,2.16 0,1.22 0.99,2.18 2.18,2.18 1.15,0 2.18,-0.9 2.18,-2.18 z"
   id="path1300"
   inkscape:connector-curvature="0"
   style="fill:#db8427" />
	<path
   class="st1"
   d="m 436.25,285.31 c 0,2.7 -1.96,4.38 -4.12,4.38 -0.96,0 -2.11,-0.36 -2.7,-1.21 v 5.17 h -2.36 v -12.51 h 2.36 v 1.01 c 0.59,-0.85 1.75,-1.22 2.7,-1.22 2.15,-0.01 4.12,1.68 4.12,4.38 z m -2.42,0 c 0,-1.22 -0.97,-2.18 -2.16,-2.18 -1.15,0 -2.18,0.9 -2.18,2.18 0,1.3 1.08,2.16 2.18,2.16 1.19,0 2.16,-0.92 2.16,-2.16 z"
   id="path1302"
   inkscape:connector-curvature="0"
   style="fill:#db8427" />
	<path
   class="st1"
   d="m 447.3,285.31 c 0,2.7 -1.96,4.38 -4.12,4.38 -0.96,0 -2.11,-0.36 -2.7,-1.21 v 5.17 h -2.36 v -12.51 h 2.36 v 1.01 c 0.59,-0.85 1.75,-1.22 2.7,-1.22 2.15,-0.01 4.12,1.68 4.12,4.38 z m -2.42,0 c 0,-1.22 -0.97,-2.18 -2.16,-2.18 -1.15,0 -2.18,0.9 -2.18,2.18 0,1.3 1.08,2.16 2.18,2.16 1.19,0 2.16,-0.92 2.16,-2.16 z"
   id="path1304"
   inkscape:connector-curvature="0"
   style="fill:#db8427" />
	<path
   class="st1"
   d="m 453.13,278.21 c 0,-0.79 0.68,-1.4 1.49,-1.4 0.83,0 1.49,0.61 1.49,1.4 0,0.79 -0.67,1.42 -1.49,1.42 -0.81,0.01 -1.49,-0.62 -1.49,-1.42 z m 0.32,2.92 h 2.36 v 8.39 h -2.36 z"
   id="path1306"
   inkscape:connector-curvature="0"
   style="fill:#db8427" />
	<path
   class="st1"
   d="m 466.39,284.91 v 4.61 h -2.36 v -4.36 c 0,-1.33 -0.79,-1.93 -1.6,-1.93 -0.85,0 -1.89,0.45 -1.89,1.98 v 4.3 h -2.36 v -8.39 h 2.36 v 1.4 c 0.36,-1.13 1.69,-1.62 2.52,-1.62 2.2,0.02 3.35,1.49 3.33,4.01 z"
   id="path1308"
   inkscape:connector-curvature="0"
   style="fill:#db8427" />
	<path
   class="st1"
   d="m 83.43,302.73 v 8.39 h -2.36 v -1.04 c -0.59,0.83 -1.76,1.21 -2.7,1.21 -2.16,0 -4.12,-1.67 -4.12,-4.38 0,-2.7 1.96,-4.38 4.12,-4.38 0.97,0 2.11,0.36 2.7,1.21 v -1.01 z M 81,306.91 c 0,-1.3 -1.08,-2.16 -2.18,-2.16 -1.19,0 -2.18,0.92 -2.18,2.16 0,1.22 0.99,2.18 2.18,2.18 1.15,0 2.18,-0.9 2.18,-2.18 z"
   id="path1310"
   inkscape:connector-curvature="0"
   style="fill:#db8427" />
	<path
   class="st1"
   d="m 102.28,302.73 -2.97,8.39 h -2.02 l -1.73,-5.46 -1.67,5.46 h -2.02 l -3.06,-8.39 h 2.56 l 1.58,5.11 1.6,-5.11 h 1.98 l 1.6,5.11 1.58,-5.11 z"
   id="path1312"
   inkscape:connector-curvature="0"
   style="fill:#db8427" />
	<path
   class="st1"
   d="m 111.75,307.68 h -6.34 c 0.25,0.97 1.04,1.51 2.18,1.51 0.85,0 1.69,-0.34 2.2,-0.94 l 1.39,1.39 c -0.79,1.06 -2.27,1.64 -3.75,1.64 -2.57,0 -4.46,-1.76 -4.46,-4.36 0,-2.72 2.05,-4.41 4.46,-4.41 2.4,0 4.36,1.69 4.36,4.27 -0.01,0.24 -0.03,0.52 -0.04,0.9 z m -2.33,-1.53 c -0.07,-0.99 -0.9,-1.58 -1.96,-1.58 -0.95,0 -1.8,0.45 -2.05,1.58 z"
   id="path1314"
   inkscape:connector-curvature="0"
   style="fill:#db8427" />
	<path
   class="st1"
   d="m 121.88,307.68 h -6.34 c 0.25,0.97 1.04,1.51 2.18,1.51 0.85,0 1.69,-0.34 2.2,-0.94 l 1.39,1.39 c -0.79,1.06 -2.27,1.64 -3.75,1.64 -2.57,0 -4.46,-1.76 -4.46,-4.36 0,-2.72 2.05,-4.41 4.46,-4.41 2.4,0 4.36,1.69 4.36,4.27 0,0.24 -0.02,0.52 -0.04,0.9 z m -2.32,-1.53 c -0.07,-0.99 -0.9,-1.58 -1.96,-1.58 -0.95,0 -1.8,0.45 -2.05,1.58 z"
   id="path1316"
   inkscape:connector-curvature="0"
   style="fill:#db8427" />
	<path
   class="st1"
   d="m 129.04,311.12 -2.95,-3.64 v 3.64 h -2.36 v -12.87 h 2.36 v 7.04 l 2.13,-2.56 h 3.03 l -3.28,3.69 4.01,4.7 z"
   id="path1318"
   inkscape:connector-curvature="0"
   style="fill:#db8427" />
	<path
   class="st1"
   d="m 140.76,307.68 h -6.34 c 0.25,0.97 1.04,1.51 2.18,1.51 0.85,0 1.69,-0.34 2.2,-0.94 l 1.39,1.39 c -0.79,1.06 -2.27,1.64 -3.75,1.64 -2.57,0 -4.46,-1.76 -4.46,-4.36 0,-2.72 2.05,-4.41 4.46,-4.41 2.4,0 4.36,1.69 4.36,4.27 0,0.24 -0.02,0.52 -0.04,0.9 z m -2.32,-1.53 c -0.07,-0.99 -0.9,-1.58 -1.96,-1.58 -0.95,0 -1.8,0.45 -2.05,1.58 z"
   id="path1320"
   inkscape:connector-curvature="0"
   style="fill:#db8427" />
	<path
   class="st1"
   d="m 150.82,306.51 v 4.61 h -2.36 v -4.36 c 0,-1.33 -0.79,-1.93 -1.6,-1.93 -0.85,0 -1.89,0.45 -1.89,1.98 v 4.3 h -2.36 v -8.39 h 2.36 v 1.4 c 0.36,-1.13 1.69,-1.62 2.52,-1.62 2.2,0.01 3.35,1.49 3.33,4.01 z"
   id="path1322"
   inkscape:connector-curvature="0"
   style="fill:#db8427" />
	<path
   class="st1"
   d="m 161.77,298.25 v 12.87 h -2.36 v -1.04 c -0.59,0.83 -1.76,1.21 -2.7,1.21 -2.16,0 -4.12,-1.67 -4.12,-4.38 0,-2.7 1.96,-4.38 4.12,-4.38 0.97,0 2.11,0.36 2.7,1.21 v -5.49 z m -2.43,8.66 c 0,-1.3 -1.08,-2.16 -2.18,-2.16 -1.19,0 -2.18,0.92 -2.18,2.16 0,1.22 0.99,2.18 2.18,2.18 1.15,0 2.18,-0.9 2.18,-2.18 z"
   id="path1324"
   inkscape:connector-curvature="0"
   style="fill:#db8427" />
	<path
   class="st1"
   d="m 163.82,309.82 c 0,-0.83 0.68,-1.44 1.5,-1.44 0.83,0 1.53,0.61 1.53,1.44 0,0.85 -0.7,1.46 -1.53,1.46 -0.82,0 -1.5,-0.61 -1.5,-1.46 z"
   id="path1326"
   inkscape:connector-curvature="0"
   style="fill:#db8427" />
	<path
   class="st1"
   d="m 182.75,298.72 v 12.41 h -2.25 l -4.5,-7.78 v 7.78 h -2.5 v -12.41 h 2.32 l 4.43,7.69 v -7.69 z"
   id="path1328"
   inkscape:connector-curvature="0"
   style="fill:#db8427" />
	<path
   class="st1"
   d="m 184.75,306.91 c 0,-2.67 2.13,-4.39 4.52,-4.39 2.39,0 4.52,1.73 4.52,4.39 0,2.65 -2.13,4.38 -4.52,4.38 -2.39,0 -4.52,-1.74 -4.52,-4.38 z m 6.64,0 c 0,-1.31 -0.95,-2.2 -2.13,-2.2 -1.17,0 -2.12,0.88 -2.12,2.2 0,1.3 0.95,2.18 2.12,2.18 1.18,0 2.13,-0.89 2.13,-2.18 z"
   id="path1330"
   inkscape:connector-curvature="0"
   style="fill:#db8427" />
	<path
   class="st1"
   d="m 208.21,307.68 h -6.34 c 0.25,0.97 1.04,1.51 2.18,1.51 0.85,0 1.69,-0.34 2.2,-0.94 l 1.39,1.39 c -0.79,1.06 -2.27,1.64 -3.75,1.64 -2.58,0 -4.47,-1.76 -4.47,-4.36 0,-2.72 2.05,-4.41 4.47,-4.41 2.39,0 4.36,1.69 4.36,4.27 -0.01,0.24 -0.03,0.52 -0.04,0.9 z m -2.33,-1.53 c -0.07,-0.99 -0.9,-1.58 -1.96,-1.58 -0.95,0 -1.8,0.45 -2.05,1.58 z"
   id="path1332"
   inkscape:connector-curvature="0"
   style="fill:#db8427" />
	<path
   class="st1"
   d="m 215.08,311.12 -1.85,-2.68 -1.89,2.68 h -2.77 l 3.33,-4.56 -2.77,-3.83 h 2.79 l 1.33,1.93 1.3,-1.93 h 2.77 l -2.77,3.83 3.29,4.56 z"
   id="path1334"
   inkscape:connector-curvature="0"
   style="fill:#db8427" />
	<path
   class="st1"
   d="m 228.26,306.91 c 0,2.7 -1.96,4.38 -4.12,4.38 -0.96,0 -2.11,-0.36 -2.7,-1.21 v 5.17 h -2.36 v -12.51 h 2.36 v 1.01 c 0.59,-0.85 1.75,-1.22 2.7,-1.22 2.15,-0.02 4.12,1.68 4.12,4.38 z m -2.42,0 c 0,-1.22 -0.97,-2.18 -2.16,-2.18 -1.15,0 -2.18,0.9 -2.18,2.18 0,1.3 1.08,2.16 2.18,2.16 1.19,0 2.16,-0.92 2.16,-2.16 z"
   id="path1336"
   inkscape:connector-curvature="0"
   style="fill:#db8427" />
	<path
   class="st1"
   d="m 238.41,307.68 h -6.34 c 0.25,0.97 1.04,1.51 2.18,1.51 0.85,0 1.69,-0.34 2.2,-0.94 l 1.39,1.39 c -0.79,1.06 -2.27,1.64 -3.75,1.64 -2.57,0 -4.46,-1.76 -4.46,-4.36 0,-2.72 2.05,-4.41 4.46,-4.41 2.4,0 4.36,1.69 4.36,4.27 0,0.24 -0.02,0.52 -0.04,0.9 z m -2.32,-1.53 c -0.07,-0.99 -0.9,-1.58 -1.96,-1.58 -0.95,0 -1.8,0.45 -2.05,1.58 z"
   id="path1338"
   inkscape:connector-curvature="0"
   style="fill:#db8427" />
	<path
   class="st1"
   d="m 246.4,302.78 -0.54,2.25 c -0.5,-0.27 -0.92,-0.31 -1.21,-0.31 -1.21,0 -2.04,1.12 -2.04,3.51 v 2.88 h -2.36 v -8.39 h 2.34 v 1.78 c 0.47,-1.4 1.42,-2 2.47,-2 0.46,0.01 0.96,0.09 1.34,0.28 z"
   id="path1340"
   inkscape:connector-curvature="0"
   style="fill:#db8427" />
	<path
   class="st1"
   d="m 247.35,299.81 c 0,-0.79 0.68,-1.4 1.49,-1.4 0.83,0 1.49,0.61 1.49,1.4 0,0.79 -0.67,1.42 -1.49,1.42 -0.8,0.01 -1.49,-0.62 -1.49,-1.42 z m 0.33,2.92 h 2.36 v 8.39 h -2.36 z"
   id="path1342"
   inkscape:connector-curvature="0"
   style="fill:#db8427" />
	<path
   class="st1"
   d="m 260.69,307.68 h -6.34 c 0.25,0.97 1.04,1.51 2.18,1.51 0.85,0 1.69,-0.34 2.2,-0.94 l 1.39,1.39 c -0.79,1.06 -2.27,1.64 -3.75,1.64 -2.57,0 -4.46,-1.76 -4.46,-4.36 0,-2.72 2.05,-4.41 4.46,-4.41 2.4,0 4.36,1.69 4.36,4.27 0,0.24 -0.02,0.52 -0.04,0.9 z m -2.32,-1.53 c -0.07,-0.99 -0.9,-1.58 -1.96,-1.58 -0.95,0 -1.8,0.45 -2.05,1.58 z"
   id="path1344"
   inkscape:connector-curvature="0"
   style="fill:#db8427" />
	<path
   class="st1"
   d="m 270.75,306.51 v 4.61 h -2.36 v -4.36 c 0,-1.33 -0.79,-1.93 -1.6,-1.93 -0.85,0 -1.89,0.45 -1.89,1.98 v 4.3 h -2.36 v -8.39 h 2.36 v 1.4 c 0.36,-1.13 1.69,-1.62 2.52,-1.62 2.2,0.01 3.35,1.49 3.33,4.01 z"
   id="path1346"
   inkscape:connector-curvature="0"
   style="fill:#db8427" />
	<path
   class="st1"
   d="m 272.5,306.89 c 0,-2.67 2.16,-4.38 4.61,-4.38 1.53,0 2.75,0.72 3.55,1.8 l -1.76,1.24 c -0.38,-0.52 -1.08,-0.85 -1.76,-0.85 -1.33,0 -2.23,0.95 -2.23,2.18 0,1.24 0.9,2.2 2.23,2.2 0.68,0 1.39,-0.32 1.76,-0.85 l 1.76,1.24 c -0.79,1.1 -2.02,1.8 -3.55,1.8 -2.45,0.01 -4.61,-1.72 -4.61,-4.38 z"
   id="path1348"
   inkscape:connector-curvature="0"
   style="fill:#db8427" />
	<path
   class="st1"
   d="m 290.46,307.68 h -6.34 c 0.25,0.97 1.04,1.51 2.18,1.51 0.85,0 1.69,-0.34 2.2,-0.94 l 1.39,1.39 c -0.79,1.06 -2.27,1.64 -3.75,1.64 -2.57,0 -4.46,-1.76 -4.46,-4.36 0,-2.72 2.05,-4.41 4.46,-4.41 2.4,0 4.36,1.69 4.36,4.27 0,0.24 -0.02,0.52 -0.04,0.9 z m -2.32,-1.53 c -0.07,-0.99 -0.9,-1.58 -1.96,-1.58 -0.95,0 -1.8,0.45 -2.05,1.58 z"
   id="path1350"
   inkscape:connector-curvature="0"
   style="fill:#db8427" />
	<path
   class="st1"
   d="m 304.81,306.51 v 4.61 h -2.36 v -4.36 c 0,-1.33 -0.79,-1.93 -1.6,-1.93 -0.85,0 -1.89,0.45 -1.89,1.98 v 4.3 h -2.36 v -8.39 h 2.36 v 1.4 c 0.36,-1.13 1.69,-1.62 2.52,-1.62 2.2,0.01 3.35,1.49 3.33,4.01 z"
   id="path1352"
   inkscape:connector-curvature="0"
   style="fill:#db8427" />
	<path
   class="st1"
   d="m 315.36,307.68 h -6.34 c 0.25,0.97 1.04,1.51 2.18,1.51 0.85,0 1.69,-0.34 2.2,-0.94 l 1.39,1.39 c -0.79,1.06 -2.27,1.64 -3.75,1.64 -2.57,0 -4.46,-1.76 -4.46,-4.36 0,-2.72 2.05,-4.41 4.46,-4.41 2.4,0 4.36,1.69 4.36,4.27 -0.01,0.24 -0.02,0.52 -0.04,0.9 z m -2.32,-1.53 c -0.07,-0.99 -0.9,-1.58 -1.96,-1.58 -0.95,0 -1.8,0.45 -2.05,1.58 z"
   id="path1354"
   inkscape:connector-curvature="0"
   style="fill:#db8427" />
	<path
   class="st1"
   d="m 316.69,306.89 c 0,-2.67 2.16,-4.38 4.61,-4.38 1.53,0 2.75,0.72 3.55,1.8 l -1.76,1.24 c -0.38,-0.52 -1.08,-0.85 -1.76,-0.85 -1.33,0 -2.23,0.95 -2.23,2.18 0,1.24 0.9,2.2 2.23,2.2 0.68,0 1.39,-0.32 1.76,-0.85 l 1.76,1.24 c -0.79,1.1 -2.02,1.8 -3.55,1.8 -2.45,0.01 -4.61,-1.72 -4.61,-4.38 z"
   id="path1356"
   inkscape:connector-curvature="0"
   style="fill:#db8427" />
	<path
   class="st1"
   d="m 334.65,307.68 h -6.34 c 0.25,0.97 1.04,1.51 2.18,1.51 0.85,0 1.69,-0.34 2.2,-0.94 l 1.39,1.39 c -0.79,1.06 -2.27,1.64 -3.75,1.64 -2.57,0 -4.46,-1.76 -4.46,-4.36 0,-2.72 2.05,-4.41 4.46,-4.41 2.4,0 4.36,1.69 4.36,4.27 0,0.24 -0.02,0.52 -0.04,0.9 z m -2.32,-1.53 c -0.07,-0.99 -0.9,-1.58 -1.96,-1.58 -0.95,0 -1.8,0.45 -2.05,1.58 z"
   id="path1358"
   inkscape:connector-curvature="0"
   style="fill:#db8427" />
	<path
   class="st1"
   d="m 335.98,308.42 h 2.21 c 0,0.49 0.41,1.01 1.24,1.01 0.68,0 1.21,-0.29 1.21,-0.77 0,-0.36 -0.29,-0.54 -0.92,-0.7 l -1.12,-0.27 c -2.16,-0.58 -2.45,-1.78 -2.45,-2.66 0,-1.3 1.35,-2.5 3.29,-2.5 1.53,0 3.33,0.76 3.31,2.74 h -2.25 c 0,-0.56 -0.47,-0.86 -1.03,-0.86 -0.54,0 -0.97,0.27 -0.97,0.7 0,0.4 0.36,0.59 0.83,0.72 l 1.39,0.36 c 2.02,0.54 2.27,1.8 2.27,2.48 0,1.76 -1.8,2.63 -3.53,2.63 -1.75,-0.02 -3.46,-1.03 -3.48,-2.88 z"
   id="path1360"
   inkscape:connector-curvature="0"
   style="fill:#db8427" />
	<path
   class="st1"
   d="m 344.35,308.42 h 2.21 c 0,0.49 0.41,1.01 1.24,1.01 0.68,0 1.21,-0.29 1.21,-0.77 0,-0.36 -0.29,-0.54 -0.92,-0.7 l -1.12,-0.27 c -2.16,-0.58 -2.45,-1.78 -2.45,-2.66 0,-1.3 1.35,-2.5 3.29,-2.5 1.53,0 3.33,0.76 3.31,2.74 h -2.25 c 0,-0.56 -0.47,-0.86 -1.03,-0.86 -0.54,0 -0.97,0.27 -0.97,0.7 0,0.4 0.36,0.59 0.83,0.72 l 1.39,0.36 c 2.02,0.54 2.27,1.8 2.27,2.48 0,1.76 -1.8,2.63 -3.53,2.63 -1.75,-0.02 -3.46,-1.03 -3.48,-2.88 z"
   id="path1362"
   inkscape:connector-curvature="0"
   style="fill:#db8427" />
	<path
   class="st1"
   d="m 361.92,302.73 v 8.39 h -2.36 v -1.04 c -0.59,0.83 -1.76,1.21 -2.7,1.21 -2.16,0 -4.12,-1.67 -4.12,-4.38 0,-2.7 1.96,-4.38 4.12,-4.38 0.97,0 2.11,0.36 2.7,1.21 v -1.01 z m -2.43,4.18 c 0,-1.3 -1.08,-2.16 -2.18,-2.16 -1.19,0 -2.18,0.92 -2.18,2.16 0,1.22 0.99,2.18 2.18,2.18 1.16,0 2.18,-0.9 2.18,-2.18 z"
   id="path1364"
   inkscape:connector-curvature="0"
   style="fill:#db8427" />
	<path
   class="st1"
   d="m 370.44,302.78 -0.54,2.25 c -0.5,-0.27 -0.92,-0.31 -1.21,-0.31 -1.21,0 -2.03,1.12 -2.03,3.51 v 2.88 h -2.36 v -8.39 h 2.34 v 1.78 c 0.47,-1.4 1.42,-2 2.47,-2 0.44,0.01 0.95,0.09 1.33,0.28 z"
   id="path1366"
   inkscape:connector-curvature="0"
   style="fill:#db8427" />
	<path
   class="st1"
   d="m 379.67,302.73 -5.19,12.51 h -2.52 l 1.98,-4.92 -3.31,-7.6 h 2.59 l 1.98,4.84 1.93,-4.84 h 2.54 z"
   id="path1368"
   inkscape:connector-curvature="0"
   style="fill:#db8427" />
	<path
   class="st1"
   d="m 379.76,309.82 c 0,-0.83 0.68,-1.44 1.5,-1.44 0.83,0 1.53,0.61 1.53,1.44 0,0.85 -0.7,1.46 -1.53,1.46 -0.82,0 -1.5,-0.61 -1.5,-1.46 z"
   id="path1370"
   inkscape:connector-curvature="0"
   style="fill:#db8427" />
</g>

<g
   id="g1386">
	<text
   transform="translate(261.1732,353.9587)"
   id="text1384"><tspan
     x="0"
     y="0"
     class="st3 st4 st6"
     id="tspan1380"
     style="font-weight:700;font-size:18px;font-family:'Sofia Pro';fill:#efc79c">{%if promo%}{{promo}} for {%if promoFor%}{{promoFor}}{%else%}a discount{%endif%}{%else%}Get your tickets{%endif%} @</tspan><tspan
     x="0"
     y="21.6"
     class="st3 st4 st6"
     id="tspan1382"
     style="font-weight:700;font-size:18px;font-family:'Sofia Pro';fill:#efc79c">CodeDay.org/{{url}}</tspan></text>




</g>
</svg>